/* XPM */
static const char * xpm_end[] = {
"32 20 55 1",
" 	c None",
".	c #000000",
"+	c #FFFFFF",
"@	c #737372",
"#	c #848483",
"$	c #888887",
"%	c #727170",
"&	c #7E7E7D",
"*	c #A8A7A6",
"=	c #A4A4A3",
"-	c #7B7B7A",
";	c #6C6B6A",
">	c #A6A5A4",
",	c #B5B4B3",
"'	c #7F7E7D",
")	c #999996",
"!	c #7D7C7B",
"~	c #858483",
"{	c #AAA9A7",
"]	c #C0BFBE",
"^	c #828180",
"/	c #9D9C9A",
"(	c #B0AFAC",
"_	c #908F8D",
":	c #91908E",
"<	c #AFAEAC",
"[	c #CACAC8",
"}	c #8C8B89",
"|	c #A9A8A5",
"1	c #BDBCB9",
"2	c #C5C3C0",
"3	c #D0CECC",
"4	c #CDCDCD",
"5	c #8F8E8C",
"6	c #B5B3B1",
"7	c #C7C6C3",
"8	c #D2D1CE",
"9	c #B9B6B4",
"0	c #D8D7D5",
"a	c #A6A5A2",
"b	c #BBBAB7",
"c	c #D4D3D2",
"d	c #A19F9D",
"e	c #C7C6C4",
"f	c #AEADA9",
"g	c #BFBDBA",
"h	c #D7D5D3",
"i	c #A7A6A3",
"j	c #B2B0AD",
"k	c #C3C1BE",
"l	c #D9D8D6",
"m	c #B5B3B0",
"n	c #D1CFCC",
"o	c #DEDDDB",
"p	c #F3F3F3",
"                                ",
"                                ",
"                                ",
"          .       .....+        ",
"          ..      .@#$.+        ",
"          .%.     .&*=.+        ",
"          .-;.    .&>,.+        ",
"          .')!.   .~{].+        ",
"          .^/(_.  .:<[.+        ",
"          .}|123.4.:<[.+        ",
"          .5678.+ .:<[.+        ",
"          ./90.+  .abc.+        ",
"          .de.+   .fgh.+        ",
"          .i.+    .jkl.+        ",
"          ..+     .mno.+        ",
"          .+      .....+        ",
"          +       +++++p        ",
"                                ",
"                                ",
"                                "};
