/* XPM */
static const char * xpm_markB[] = {
"32 20 14 1",
" 	c None",
".	c #000000",
"+	c #AFD8D5",
"@	c #526564",
"#	c #010101",
"$	c #2D3837",
"%	c #1E2625",
"&	c #0D100F",
"*	c #98BCB9",
"=	c #020202",
"-	c #728C8A",
";	c #050606",
">	c #526664",
",	c #040505",
"                                ",
"              .                 ",
"              .                 ",
"              .        .....    ",
"  ............. . . .  .   ..   ",
"  +++++++++++@#        .    .   ",
"  +++++++++++$.        .    .   ",
"  +++++++++++%         .   ..   ",
"  +++++++++++&         .....    ",
"  +++++++++++#         .   ..   ",
"  ++++++++++*=         .    ..  ",
"  ++++++++++-;         .     .  ",
"  ++++++++++>,         .    ..  ",
"  ........... . . . .  ......   ",
"        .   .                   ",
"        ..  .                   ",
"  ......... .                   ",
"        ..  .                   ",
"        .                       ",
"                                "};
