/* XPM */
static const char * xpm_stop[] = {
"32 20 30 1",
" 	c None",
".	c #000000",
"+	c #D9D9D9",
"@	c #737372",
"#	c #848483",
"$	c #888887",
"%	c #FFFFFF",
"&	c #7E7E7D",
"*	c #A8A7A6",
"=	c #A4A4A3",
"-	c #A6A5A4",
";	c #B5B4B3",
">	c #858483",
",	c #AAA9A7",
"'	c #C0BFBE",
")	c #91908E",
"!	c #AFAEAC",
"~	c #CACAC8",
"{	c #A6A5A2",
"]	c #BBBAB7",
"^	c #D4D3D2",
"/	c #AEADA9",
"(	c #BFBDBA",
"_	c #D7D5D3",
":	c #B2B0AD",
"<	c #C3C1BE",
"[	c #D9D8D6",
"}	c #B5B3B0",
"|	c #D1CFCC",
"1	c #DEDDDB",
"                                ",
"                                ",
"                                ",
"         .............+         ",
"         .@#$$$$$$$$$.%         ",
"         .&*=========.%         ",
"         .&-;;;;;;;;;.%         ",
"         .>,'''''''''.%         ",
"         .)!~~~~~~~~~.%         ",
"         .)!~~~~~~~~~.%         ",
"         .{]^^^^^^^^^.%         ",
"         .{]^^^^^^^^^.%         ",
"         ./(_________.%         ",
"         .:<[[[[[[[[[.%         ",
"         .}|111111111.%         ",
"         .............%         ",
"         %%%%%%%%%%%%%%         ",
"                                ",
"                                ",
"                                "};
