/* XPM */
static const char * systray_xpm[] = {
"22 23 288 2",
"  	c None",
". 	c #DDD4DC",
"+ 	c #9F9D9F",
"@ 	c #9B9A9B",
"# 	c #9B9A9A",
"$ 	c #ABA6A8",
"% 	c #F2D8DF",
"& 	c #C57986",
"* 	c #E5C9CB",
"= 	c #ABA7A7",
"- 	c #A2A1A2",
"; 	c #A1A1A1",
"> 	c #9F9F9F",
", 	c #9D9C9D",
"' 	c #939292",
") 	c #7B7677",
"! 	c #BFACB0",
"~ 	c #C0ADB3",
"{ 	c #868586",
"] 	c #9B9B9B",
"^ 	c #A4A4A4",
"/ 	c #A6A6A6",
"( 	c #949494",
"_ 	c #898989",
": 	c #8B8B8B",
"< 	c #7C7B7B",
"[ 	c #A09899",
"} 	c #CDA9B0",
"| 	c #D2BDC0",
"1 	c #7C7C7C",
"2 	c #919292",
"3 	c #999999",
"4 	c #A3A3A3",
"5 	c #656565",
"6 	c #6A6A6A",
"7 	c #565656",
"8 	c #575757",
"9 	c #797979",
"0 	c #646465",
"a 	c #8D8486",
"b 	c #6F6E6E",
"c 	c #818181",
"d 	c #E0E0E0",
"e 	c #CCCCCC",
"f 	c #787878",
"g 	c #828282",
"h 	c #7E7E7E",
"i 	c #696969",
"j 	c #333333",
"k 	c #393939",
"l 	c #4E4A49",
"m 	c #5F5D5E",
"n 	c #636363",
"o 	c #FBFBFB",
"p 	c #F3F3F3",
"q 	c #D7D7D7",
"r 	c #9D9D9D",
"s 	c #878787",
"t 	c #BCBCBC",
"u 	c #A8A8A8",
"v 	c #737373",
"w 	c #3F3F3F",
"x 	c #525252",
"y 	c #3D3C3C",
"z 	c #D4BBC4",
"A 	c #656263",
"B 	c #565757",
"C 	c #FAFAFA",
"D 	c #7D7D7D",
"E 	c #3E3E3E",
"F 	c #B2B2B0",
"G 	c #F7F7F7",
"H 	c #CDCDCD",
"I 	c #626262",
"J 	c #4A4A4A",
"K 	c #2B2B2B",
"L 	c #1B1B1B",
"M 	c #8A8288",
"N 	c #C3B7B8",
"O 	c #303030",
"P 	c #353535",
"Q 	c #6F6F6F",
"R 	c #F9F9F9",
"S 	c #C5C5C5",
"T 	c #7E7E7D",
"U 	c #C0C0B1",
"V 	c #B7B8B1",
"W 	c #757575",
"X 	c #BBBBBB",
"Y 	c #B8B8B8",
"Z 	c #3C3C3C",
"` 	c #232323",
" .	c #141414",
"..	c #3B3B3B",
"+.	c #C7C3C3",
"@.	c #1F1F1F",
"#.	c #282828",
"$.	c #8F8F8F",
"%.	c #CCCAA3",
"&.	c #D8B92A",
"*.	c #F1D895",
"=.	c #E7E4E2",
"-.	c #DCDCDC",
";.	c #CECECE",
">.	c #454545",
",.	c #181818",
"'.	c #0E0E0E",
").	c #161616",
"!.	c #BCBABA",
"~.	c #8E8D8D",
"{.	c #171717",
"].	c #1E1E1E",
"^.	c #595959",
"/.	c #CFCFCF",
"(.	c #EEEEEE",
"_.	c #E5DC72",
":.	c #FCCD00",
"<.	c #EEA704",
"[.	c #B4ADA6",
"}.	c #CACACA",
"|.	c #B0B0B0",
"1.	c #535353",
"2.	c #111111",
"3.	c #090909",
"4.	c #040404",
"5.	c #1C1C1C",
"6.	c #B5B3B4",
"7.	c #C7BAC6",
"8.	c #131314",
"9.	c #0F0F0F",
"0.	c #2F2F2F",
"a.	c #EAEAEA",
"b.	c #FFFFFF",
"c.	c #FFFFFE",
"d.	c #F6EDAD",
"e.	c #FDC302",
"f.	c #B69032",
"g.	c #D4D3D4",
"h.	c #F6F6F6",
"i.	c #F4F4F4",
"j.	c #EFEFEF",
"k.	c #D9D9D9",
"l.	c #292929",
"m.	c #080808",
"n.	c #000000",
"o.	c #C5C5C4",
"p.	c #E2C5E0",
"q.	c #433D42",
"r.	c #030303",
"s.	c #D5D5D5",
"t.	c #FCFCFC",
"u.	c #FEFEFE",
"v.	c #FAF1D4",
"w.	c #E6B01B",
"x.	c #B4A991",
"y.	c #F2F2F2",
"z.	c #E8E8E8",
"A.	c #E2E2E2",
"B.	c #010101",
"C.	c #373737",
"D.	c #91808E",
"E.	c #6F6C71",
"F.	c #606060",
"G.	c #707070",
"H.	c #F8F4EA",
"I.	c #CFBE98",
"J.	c #DFE0DD",
"K.	c #EBEBEB",
"L.	c #E6E6E6",
"M.	c #939393",
"N.	c #2D2D2D",
"O.	c #A09F9F",
"P.	c #827D80",
"Q.	c #D8AACD",
"R.	c #EBE6E9",
"S.	c #F5F5F5",
"T.	c #F8F8F8",
"U.	c #F7F7F6",
"V.	c #EEEEEC",
"W.	c #F0F0F0",
"X.	c #ECECEC",
"Y.	c #E4E4E4",
"Z.	c #DEDEDE",
"`.	c #464646",
" +	c #BDBDBD",
".+	c #D6CED1",
"++	c #E5E4E4",
"@+	c #EED4EB",
"#+	c #E7E7E7",
"$+	c #F1F1F1",
"%+	c #EDEDED",
"&+	c #E9E9E9",
"*+	c #E5E5E5",
"=+	c #DADADA",
"-+	c #D4D4D4",
";+	c #D3BFC4",
">+	c #B5ABB0",
",+	c #EBECEB",
"'+	c #E1E1E1",
")+	c #D1D1D1",
"!+	c #AFAEAE",
"~+	c #D6B4BC",
"{+	c #E2DEDE",
"]+	c #E3E3E3",
"^+	c #D8D8D8",
"/+	c #D3D3D3",
"(+	c #C7C7C7",
"_+	c #CAC2C3",
":+	c #D0C2C4",
"<+	c #E3E2E2",
"[+	c #D2D3D3",
"}+	c #CECFCE",
"|+	c #BCBDBD",
"1+	c #B6B8B7",
"2+	c #BCA0A4",
"3+	c #E8E5E3",
"4+	c #EEBD84",
"5+	c #EDC178",
"6+	c #E4C18B",
"7+	c #E0DFE2",
"8+	c #DDDDDD",
"9+	c #DBD8D6",
"0+	c #E4C08E",
"a+	c #E9D591",
"b+	c #E6D8B2",
"c+	c #E2D4B1",
"d+	c #D5B175",
"e+	c #FDF0EB",
"f+	c #DAB39C",
"g+	c #FAC63C",
"h+	c #FBD47C",
"i+	c #FBE5B9",
"j+	c #F7E6C0",
"k+	c #F6DDA0",
"l+	c #E4CC94",
"m+	c #D5D3DD",
"n+	c #D6D1CC",
"o+	c #EACE89",
"p+	c #FAE3AC",
"q+	c #FBF0CA",
"r+	c #FBEDB8",
"s+	c #FADB7B",
"t+	c #FCB019",
"u+	c #FAA125",
"v+	c #F1BF69",
"w+	c #FDC902",
"x+	c #FDD803",
"y+	c #FCE320",
"z+	c #FDE554",
"A+	c #FDE16F",
"B+	c #FDC13E",
"C+	c #D6C9A1",
"D+	c #E2BE76",
"E+	c #FDD41C",
"F+	c #FDE537",
"G+	c #FCE622",
"H+	c #FDDE0C",
"I+	c #FECE01",
"J+	c #FEB902",
"K+	c #FDBD70",
"L+	c #F4C395",
"M+	c #FCD631",
"N+	c #FBEA01",
"O+	c #FDF101",
"P+	c #FEEA00",
"Q+	c #FCD800",
"R+	c #F9BF0A",
"S+	c #D5C5A1",
"T+	c #EAC660",
"U+	c #FDDB01",
"V+	c #FEED00",
"W+	c #FEF300",
"X+	c #FBD800",
"Y+	c #FCBF2D",
"Z+	c #D8A5B7",
"`+	c #E8C1AF",
" @	c #FBDF7A",
".@	c #FCEB3E",
"+@	c #FDE423",
"@@	c #FDDF40",
"#@	c #F3CD8D",
"$@	c #E2CDD0",
"%@	c #EBD1BF",
"&@	c #FBD757",
"*@	c #FDDB0F",
"=@	c #FBE00C",
"-@	c #FDD837",
";@	c #F6E5AF",
"                . + @ # $ %                 ",
"          & * = - ; > , ' ) !               ",
"          ~ { ] ^ / / ( _ : < [ }           ",
"        | 1 2 3 > 4 5 6 7 8 9 0 a           ",
"        b c / d e f 5 g h i j 6 k l         ",
"      m n : o p q r s t u v w x j y z       ",
"      A B h C D E F x G H I 6 J K L M       ",
"    N O P Q R S T U V 5 W X Y Z `  ...      ",
"    +.@.#.E $.d %.&.*.=.-.;.>.#.,.'.).!.    ",
"    ~.{.].^./.(._.:.<.[.q }.|.1.2.3.4.5.6.  ",
"  7.8.9.0.a.b.c.d.e.f.g.h.i.j.k.l.m.n.4.1.o.",
"p.q.r.L s.t.u.u.v.w.x.h.h.y.(.z.A.{.n.B.C.3 ",
"D.E.F.G.p R o o H.I.J.h.p j.K.L.d M.n.O N.O.",
"P.Q.R.;.p S.G T.U.V.y.p W.X.z.Y.Z.e `. +.+++",
"    @+#+j.$+p i.i.p $+W.%+&+*+d =+-+v ;+    ",
"    >+,+K.%+(.j.j.(.%+K.z.Y.'+-.q )+!+~+    ",
"      {+#+z.&+&+&+&+#+L.]+d -.^+/+(+_+      ",
"      :+<+A.]+Y.*+]+A.d Z.=+q [+}+|+1+      ",
"      2+3+4+5+6+7+8+8+=+9+0+a+b+c+d+e+      ",
"      f+g+h+i+j+k+l+m+n+o+p+q+r+s+t+u+      ",
"      v+w+x+y+z+A+B+C+D+E+F+G+H+I+J+K+      ",
"      L+M+N+O+P+Q+R+S+T+U+V+W+P+X+Y+        ",
"      Z+`+ @.@+@@@#@$@%@&@*@=@-@;@          "};
