/* XPM */
static const char * xpm_prevblack[] = {
"32 20 48 1",
" 	c None",
".	c #000000",
"+	c #FFFFFF",
"@	c #D9D9D9",
"#	c #010101",
"$	c #020202",
"%	c #090909",
"&	c #080808",
"*	c #696867",
"=	c #090808",
"-	c #0F0E0E",
";	c #5B5A59",
">	c #9C9C9A",
",	c #0A0A09",
"'	c #161514",
")	c #636261",
"!	c #C5C4C3",
"~	c #040303",
"{	c #0C0C0B",
"]	c #1E1E1C",
"^	c #6F6E6C",
"/	c #959491",
"(	c #D3D3D1",
"_	c #E4E4E4",
":	c #A2A09F",
"<	c #A6A4A2",
"[	c #D4D3D2",
"}	c #A3A2A0",
"|	c #B7B6B3",
"1	c #D4D4D3",
"2	c #090807",
"3	c #121210",
"4	c #282726",
"5	c #A8A7A5",
"6	c #DFDFDD",
"7	c #0C0B0A",
"8	c #151412",
"9	c #2C2A27",
"0	c #C4C4C2",
"a	c #DFDFDE",
"b	c #0D0C0B",
"c	c #181614",
"d	c #2F2E2B",
"e	c #D4D3D1",
"f	c #0F0E0C",
"g	c #252320",
"h	c #363532",
"i	c #F3F3F3",
"                                ",
"                                ",
"                                ",
"          .....+      .@        ",
"          .#$$.+     ..+        ",
"          .#%&.+    .*.+        ",
"          .#=-.+   .;>.+        ",
"          .$,'.+  .)!.+         ",
"          .~{].+ .^/(.+         ",
"          .~{]._.:<[.+          ",
"          .~{].+ .}|1.+         ",
"          .234.+  .56.+         ",
"          .789.+  +.0a.+        ",
"          .bcd.+   +.e.+        ",
"          .fgh.+     ..+        ",
"          .....+     +.+        ",
"          +++++i                ",
"                                ",
"                                ",
"                                "};
