/* XPM */
static const char * xpm_backward[] = {
"32 20 25 1",
" 	c None",
".	c #000000",
"+	c #D9D9D9",
"@	c #FFFFFF",
"#	c #696867",
"$	c #5B5A59",
"%	c #9C9C9A",
"&	c #636261",
"*	c #908F8D",
"=	c #6F6E6C",
"-	c #959491",
";	c #C0BFBD",
">	c #F7F7F7",
",	c #A2A09F",
"'	c #A6A4A2",
")	c #BDBCB9",
"!	c #F6F6F6",
"~	c #A3A2A0",
"{	c #B7B6B3",
"]	c #D0CFCD",
"^	c #A8A7A5",
"/	c #D5D5D3",
"(	c #C4C4C2",
"_	c #DFDFDE",
":	c #D4D3D1",
"                                ",
"                                ",
"                                ",
"                 .+             ",
"                ..@             ",
"               .#.@             ",
"              .$%.@             ",
"             .&*.@              ",
"            .=-;.>              ",
"           .,').!               ",
"            .~{].@              ",
"             .^/.@              ",
"             @.(_.@             ",
"              @.:.@             ",
"                ..@             ",
"                @.@             ",
"                                ",
"                                ",
"                                ",
"                                "};
