/* XPM */
static const char * xpm_begin[] = {
"32 20 56 1",
" 	c None",
".	c #000000",
"+	c #FFFFFF",
"@	c #D9D9D9",
"#	c #737372",
"$	c #848483",
"%	c #888887",
"&	c #7E7E7D",
"*	c #A8A7A6",
"=	c #A4A4A3",
"-	c #696867",
";	c #A6A5A4",
">	c #B5B4B3",
",	c #5B5A59",
"'	c #9C9C9A",
")	c #858483",
"!	c #AAA9A7",
"~	c #C0BFBE",
"{	c #636261",
"]	c #908F8D",
"^	c #C5C4C3",
"/	c #91908E",
"(	c #AFAEAC",
"_	c #CACAC8",
":	c #6F6E6C",
"<	c #959491",
"[	c #C0BFBD",
"}	c #D3D3D1",
"|	c #E4E4E4",
"1	c #A2A09F",
"2	c #A6A4A2",
"3	c #BDBCB9",
"4	c #C6C5C3",
"5	c #D4D3D2",
"6	c #A3A2A0",
"7	c #B7B6B3",
"8	c #D0CFCD",
"9	c #D4D4D3",
"0	c #A6A5A2",
"a	c #BBBAB7",
"b	c #A8A7A5",
"c	c #D5D5D3",
"d	c #DFDFDD",
"e	c #AEADA9",
"f	c #BFBDBA",
"g	c #D7D5D3",
"h	c #C4C4C2",
"i	c #DFDFDE",
"j	c #B2B0AD",
"k	c #C3C1BE",
"l	c #D9D8D6",
"m	c #D4D3D1",
"n	c #B5B3B0",
"o	c #D1CFCC",
"p	c #DEDDDB",
"q	c #F3F3F3",
"                                ",
"                                ",
"                                ",
"          .....+      .@        ",
"          .#$%.+     ..+        ",
"          .&*=.+    .-.+        ",
"          .&;>.+   .,'.+        ",
"          .)!~.+  .{]^.+        ",
"          ./(_.+ .:<[}.+        ",
"          ./(_.|.12345.+        ",
"          ./(_.+ .6789.+        ",
"          .0a5.+  .bcd.+        ",
"          .efg.+  +.hi.+        ",
"          .jkl.+   +.m.+        ",
"          .nop.+     ..+        ",
"          .....+     +.+        ",
"          +++++q                ",
"                                ",
"                                ",
"                                "};
