/* XPM */
static const char * gnome_calculator_xpm[] = {
"24 24 175 2",
"  	c None",
". 	c #000000",
"+ 	c #030404",
"@ 	c #D6D6D6",
"# 	c #CDCDCD",
"$ 	c #C3C3C3",
"% 	c #B9B9B9",
"& 	c #AFAFAF",
"* 	c #A5A5A5",
"= 	c #9B9B9B",
"- 	c #929292",
"; 	c #888888",
"> 	c #7E7E7E",
", 	c #757575",
"' 	c #747474",
") 	c #7F7F7F",
"! 	c #939393",
"~ 	c #18191A",
"{ 	c #CCCCCC",
"] 	c #394339",
"^ 	c #A6A6A6",
"/ 	c #181819",
"( 	c #343C34",
"_ 	c #576457",
": 	c #535F53",
"< 	c #4E5A4E",
"[ 	c #4B564B",
"} 	c #949494",
"| 	c #A7A7A7",
"1 	c #181818",
"2 	c #384038",
"3 	c #363E36",
"4 	c #323932",
"5 	c #353D35",
"6 	c #A8A8A8",
"7 	c #171718",
"8 	c #CBCBCB",
"9 	c #C1C1C1",
"0 	c #B8B8B8",
"a 	c #AEAEAE",
"b 	c #A4A4A4",
"c 	c #919191",
"d 	c #878787",
"e 	c #7D7D7D",
"f 	c #828282",
"g 	c #959595",
"h 	c #40403F",
"i 	c #3E3E3C",
"j 	c #484846",
"k 	c #4B4B4A",
"l 	c #161617",
"m 	c #7C8080",
"n 	c #545656",
"o 	c #525354",
"p 	c #4A4A4B",
"q 	c #494A4A",
"r 	c #484A4A",
"s 	c #48494A",
"t 	c #484849",
"u 	c #474848",
"v 	c #474748",
"w 	c #464648",
"x 	c #464647",
"y 	c #464646",
"z 	c #4D4C4E",
"A 	c #656466",
"B 	c #848889",
"C 	c #454849",
"D 	c #1F2121",
"E 	c #1F2021",
"F 	c #5A5E5F",
"G 	c #424446",
"H 	c #1E1F1F",
"I 	c #1D1E1F",
"J 	c #57585A",
"K 	c #404142",
"L 	c #1D1D1E",
"M 	c #1C1D1D",
"N 	c #545456",
"O 	c #3D3D3E",
"P 	c #1B1B1C",
"Q 	c #575659",
"R 	c #161616",
"S 	c #838788",
"T 	c #282828",
"U 	c #A3A3A3",
"V 	c #808080",
"W 	c #2A2B2C",
"X 	c #A9A9A9",
"Y 	c #7B7B7B",
"Z 	c #2A2A2A",
"` 	c #7C7C7C",
" .	c #272728",
"..	c #373737",
"+.	c #C0C0C0",
"@.	c #282829",
"#.	c #161516",
"$.	c #828687",
"%.	c #212121",
"&.	c #5F5F5F",
"*.	c #2B2C2C",
"=.	c #ADADAD",
"-.	c #29292A",
";.	c #838383",
">.	c #323232",
",.	c #818485",
"'.	c #323233",
").	c #4A4B4D",
"!.	c #313132",
"~.	c #48484A",
"{.	c #303031",
"].	c #4A494B",
"^.	c #3A393B",
"/.	c #1A191B",
"(.	c #19191A",
"_.	c #535154",
":.	c #151415",
"<.	c #808384",
"[.	c #B2B2B2",
"}.	c #6B6B6B",
"|.	c #2B2B2C",
"1.	c #A0A0A0",
"2.	c #797979",
"3.	c #404042",
"4.	c #ABABAB",
"5.	c #BFBFBF",
"6.	c #B7B7B7",
"7.	c #282628",
"8.	c #808284",
"9.	c #191A1A",
"0.	c #787878",
"a.	c #727272",
"b.	c #353637",
"c.	c #191919",
"d.	c #4B4B4D",
"e.	c #191819",
"f.	c #8B8B8B",
"g.	c #333233",
"h.	c #BDBDBD",
"i.	c #141415",
"j.	c #7F8183",
"k.	c #282929",
"l.	c #595A5C",
"m.	c #47484A",
"n.	c #515054",
"o.	c #454446",
"p.	c #282728",
"q.	c #4E4C4F",
"r.	c #9D9D9D",
"s.	c #141314",
"t.	c #7F8082",
"u.	c #8F8F8F",
"v.	c #1C1C1D",
"w.	c #242425",
"x.	c #979797",
"y.	c #242324",
"z.	c #272627",
"A.	c #78797A",
"B.	c #6C6C6C",
"C.	c #868686",
"D.	c #141214",
"E.	c #56585A",
"F.	c #292929",
"G.	c #525254",
"H.	c #464547",
"I.	c #292829",
"J.	c #4F4D50",
"K.	c #3E3C3E",
"L.	c #252426",
"M.	c #545154",
"N.	c #5D595D",
"O.	c #242424",
"P.	c #4C494C",
"Q.	c #111011",
"R.	c #080909",
"                                                ",
"                                                ",
"    . . . . . . . . . . . . . . . . . +         ",
"  . @ # $ % & * = - ; > , ' ' ' ) ! * ~         ",
"  . @ { ] ] ] ] ] ] ] ] ] ] ] ] ] ! ^ /         ",
"  . @ { ( _ _ _ _ _ _ : < < [ [ ( } | 1         ",
"  . @ { ] ] ] ] ] ] ] 2 ( ( 3 4 5 } 6 7         ",
"  . @ 8 9 0 a b = c d e ' ' ' ' f g 6 7         ",
"  . h i j j j j j j j j j j j j j j k l         ",
"  . . . . . . . . . . . . . . . . . . .         ",
"  . m n o p q r s s t t u v w x y z A 7         ",
"  . B C D E F G H I J K L M N O P P Q R         ",
"  . S T U V W T X Y Z T U `  ...+.X @.#.        ",
"  . $.%.Y &.*.%.=.` -.%.;.&.-.>.| - T #.        ",
"  . ,.'.Z %.).!.T %.~.{.T %.].^./.(._.:.        ",
"  . <.T [.}.|.T 1.2.3.T 4.Y @...5.6.7.:.        ",
"  . 8.9.0.a.b.c.2.Y d.e.f.Y g...h.} 7.i.        ",
"  . j.).W k.l.m.Z  .n.o.-.p.q...9 r.7.s.        ",
"  . t.T u.a.v.T u.a.w.T x.) y...0 } z.s.        ",
"  . A.%.2.&.v.%.) B.@.%.C.' p.g.0 } z.D.        ",
"  . E.~.Z F.G.H.I.@.J.K.z.L.M.N.O.O.P.Q.        ",
"    . . . . . . . . . . . . . . . . . R.        ",
"                                                ",
"                                                "};
