/* XPM */
static const char * gnome_calculator_small_xpm[] = {
"16 16 94 2",
"  	c None",
". 	c #000000",
"+ 	c #D6D6D6",
"@ 	c #CDCDCD",
"# 	c #B9B9B9",
"$ 	c #AFAFAF",
"% 	c #9B9B9B",
"& 	c #929292",
"* 	c #7E7E7E",
"= 	c #757575",
"- 	c #747474",
"; 	c #939393",
"> 	c #A5A5A5",
", 	c #CCCCCC",
"' 	c #576457",
") 	c #535F53",
"! 	c #4E5A4E",
"~ 	c #4B564B",
"{ 	c #949494",
"] 	c #A7A7A7",
"^ 	c #394339",
"/ 	c #384038",
"( 	c #343C34",
"_ 	c #363E36",
": 	c #323932",
"< 	c #A8A8A8",
"[ 	c #40403F",
"} 	c #3E3E3C",
"| 	c #484846",
"1 	c #4B4B4A",
"2 	c #848889",
"3 	c #454849",
"4 	c #1F2021",
"5 	c #5A5E5F",
"6 	c #1E1F1F",
"7 	c #1D1E1F",
"8 	c #404142",
"9 	c #1D1D1E",
"0 	c #545456",
"a 	c #3D3D3E",
"b 	c #1B1B1C",
"c 	c #575659",
"d 	c #838788",
"e 	c #282828",
"f 	c #808080",
"g 	c #2A2B2C",
"h 	c #A9A9A9",
"i 	c #7B7B7B",
"j 	c #A3A3A3",
"k 	c #272728",
"l 	c #373737",
"m 	c #282829",
"n 	c #818485",
"o 	c #323233",
"p 	c #212121",
"q 	c #4A4B4D",
"r 	c #303031",
"s 	c #4A494B",
"t 	c #3A393B",
"u 	c #19191A",
"v 	c #535154",
"w 	c #808384",
"x 	c #6B6B6B",
"y 	c #2B2B2C",
"z 	c #A0A0A0",
"A 	c #797979",
"B 	c #ABABAB",
"C 	c #B7B7B7",
"D 	c #282628",
"E 	c #7F8183",
"F 	c #282929",
"G 	c #595A5C",
"H 	c #2A2A2A",
"I 	c #454446",
"J 	c #29292A",
"K 	c #4E4C4F",
"L 	c #9D9D9D",
"M 	c #7F8082",
"N 	c #727272",
"O 	c #1C1C1D",
"P 	c #8F8F8F",
"Q 	c #979797",
"R 	c #242324",
"S 	c #272627",
"T 	c #56585A",
"U 	c #48484A",
"V 	c #292929",
"W 	c #525254",
"X 	c #292829",
"Y 	c #3E3C3E",
"Z 	c #545154",
"` 	c #5D595D",
" .	c #242424",
"..	c #4C494C",
"                                ",
"  . . . . . . . . . . . .       ",
"  + @ # $ % & * = - - ; >       ",
"  + , ' ' ' ' ) ! ~ ~ { ]       ",
"  + , ^ ^ ^ ^ / ( _ : { <       ",
"  [ } | | | | | | | | | 1       ",
"  . . . . . . . . . . . .       ",
"  2 3 4 5 6 7 8 9 0 a b c       ",
"  d e f g h i e j k l h m       ",
"  n o p q e p r e s t u v       ",
"  w e x y z A e B m l C D       ",
"  E q F G H k I J K l L D       ",
"  M e N O P N e Q R l { S       ",
"  T U V W X m Y S Z `  ...      ",
"  . . . . . . . . . . . .       ",
"                                "};
