/* XPM */
static const char * xpm_Kbackward[] = {
"32 20 25 1",
" 	c None",
".	c #000000",
"+	c #D9D9D9",
"@	c #FFFFFF",
"#	c #696867",
"$	c #5B5A59",
"%	c #9C9C9A",
"&	c #636261",
"*	c #C5C4C3",
"=	c #6F6E6C",
"-	c #959491",
";	c #D3D3D1",
">	c #BBBBBB",
",	c #A2A09F",
"'	c #BDBCB9",
")	c #D4D3D2",
"!	c #A6A4A2",
"~	c #A3A2A0",
"{	c #B7B6B3",
"]	c #D4D4D3",
"^	c #A8A7A5",
"/	c #DFDFDD",
"(	c #C4C4C2",
"_	c #DFDFDE",
":	c #D4D3D1",
"                                ",
"                                ",
"                                ",
"               .+    .+         ",
"              ..@   ..@         ",
"             .#.@  .#.@         ",
"            .$%.@ .$%.@         ",
"           .&*.@ .&*.@          ",
"          .=-;.>.=-;.@          ",
"         .,').@.,!).@           ",
"          .~{].@.~{].@          ",
"           .^/.@ .^/.@          ",
"           @.(_.@@.(_.@         ",
"            @.:.@ @.:.@         ",
"              ..@   ..@         ",
"              @.@   @.@         ",
"                                ",
"                                ",
"                                ",
"                                "};
