/* XPM */
static const char * xpm_Kforward[] = {
"32 20 23 1",
" 	c None",
".	c #000000",
"+	c #727170",
"@	c #7B7B7A",
"#	c #6C6B6A",
"$	c #7F7E7D",
"%	c #7D7C7B",
"&	c #828180",
"*	c #B0AFAC",
"=	c #908F8D",
"-	c #8C8B89",
";	c #BDBCB9",
">	c #D0CECC",
",	c #FFFFFF",
"'	c #8F8E8C",
")	c #C7C6C3",
"!	c #D2D1CE",
"~	c #989898",
"{	c #9D9C9A",
"]	c #D8D7D5",
"^	c #A19F9D",
"/	c #C7C6C4",
"(	c #A7A6A3",
"                                ",
"                                ",
"                                ",
"          .     .               ",
"          ..    ..              ",
"          .+.   .+.             ",
"          .@#.  .@#.            ",
"           .$%.  .$%.           ",
"           .&*=...&*=.          ",
"            .-;>. .-;>.,        ",
"           .')!.~.')!.,         ",
"           .{]., .{].,          ",
"          .^/., .^/.,           ",
"          .(.,  .(.,            ",
"          ..,   ..,             ",
"          .,    .,              ",
"          ,     ,               ",
"                                ",
"                                ",
"                                "};
