/* XPM */
static const char * xpm_markA[] = {
"32 20 11 1",
" 	c None",
".	c #000000",
"+	c #050707",
"@	c #AFD8D5",
"#	c #1B2121",
"$	c #3F4D4C",
"%	c #6C8684",
"&	c #98BCB9",
"*	c #020303",
"=	c #0F1212",
"-	c #27302F",
"                                ",
"                  .             ",
"                  .             ",
"      ..          .             ",
"     ...    . . . ...........   ",
"     ...          +@@@@@@@@@@   ",
"     . ..         #@@@@@@@@@@   ",
"    .. ..        .$@@@@@@@@@@   ",
"    .   .        .%@@@@@@@@@@   ",
"    .   ..       .&@@@@@@@@@@   ",
"   .......       *@@@@@@@@@@@   ",
"   .     .       =@@@@@@@@@@@   ",
"   .     ..      -@@@@@@@@@@@   ",
"  ..     .. . . .............   ",
"                .      .        ",
"                .      ..       ",
"                ..........      ",
"                .      ..       ",
"                       .        ",
"                                "};
