/* XPM */
static const char * xpm_play[] = {
"32 20 53 1",
" 	c None",
".	c #000000",
"+	c #FFFFFF",
"@	c #737372",
"#	c #848483",
"$	c #888887",
"%	c #7E7E7D",
"&	c #A8A7A6",
"*	c #A4A4A3",
"=	c #727170",
"-	c #A6A5A4",
";	c #B5B4B3",
">	c #7B7B7A",
",	c #6C6B6A",
"'	c #858483",
")	c #AAA9A7",
"!	c #C0BFBE",
"~	c #7F7E7D",
"{	c #999996",
"]	c #7D7C7B",
"^	c #91908E",
"/	c #AFAEAC",
"(	c #CACAC8",
"_	c #828180",
":	c #9D9C9A",
"<	c #B0AFAC",
"[	c #908F8D",
"}	c #8C8B89",
"|	c #A9A8A5",
"1	c #BDBCB9",
"2	c #C5C3C0",
"3	c #D0CECC",
"4	c #A6A5A2",
"5	c #BBBAB7",
"6	c #D4D3D2",
"7	c #8F8E8C",
"8	c #B5B3B1",
"9	c #C7C6C3",
"0	c #D2D1CE",
"a	c #B9B6B4",
"b	c #D8D7D5",
"c	c #AEADA9",
"d	c #BFBDBA",
"e	c #D7D5D3",
"f	c #A19F9D",
"g	c #C7C6C4",
"h	c #B2B0AD",
"i	c #C3C1BE",
"j	c #D9D8D6",
"k	c #A7A6A3",
"l	c #B5B3B0",
"m	c #D1CFCC",
"n	c #DEDDDB",
"                                ",
"                                ",
"                                ",
"        ........+ .             ",
"        .@#$$$$.+ ..            ",
"        .%&****.+ .=.           ",
"        .%-;;;;.+ .>,.          ",
"        .')!!!!.+ .~{].         ",
"        .^/((((.+ ._:<[.        ",
"        .^/((((.+ .}|123.+      ",
"        .456666.+ .7890.+       ",
"        .456666.+ .:ab.+        ",
"        .cdeeee.+ .fg.+         ",
"        .hijjjj.+ .k.+          ",
"        .lmnnnn.+ ..+           ",
"        ........+ .+            ",
"        +++++++++ +             ",
"                                ",
"                                ",
"                                "};
