/* XPM */
static const char * systray2_xpm[] = {
"22 23 288 2",
"  	c None",
". 	c #F2D8DF",
"+ 	c #ABA6A8",
"@ 	c #9B9A9A",
"# 	c #9B9A9B",
"$ 	c #9F9D9F",
"% 	c #DDD4DC",
"& 	c #BFACB0",
"* 	c #7B7677",
"= 	c #939292",
"- 	c #9D9C9D",
"; 	c #9F9F9F",
"> 	c #A1A1A1",
", 	c #A2A1A2",
"' 	c #ABA7A7",
") 	c #E5C9CB",
"! 	c #C57986",
"~ 	c #CDA9B0",
"{ 	c #A09899",
"] 	c #7C7B7B",
"^ 	c #8B8B8B",
"/ 	c #898989",
"( 	c #949494",
"_ 	c #A6A6A6",
": 	c #A4A4A4",
"< 	c #9B9B9B",
"[ 	c #868586",
"} 	c #C0ADB3",
"| 	c #8D8486",
"1 	c #646465",
"2 	c #797979",
"3 	c #575757",
"4 	c #565656",
"5 	c #6A6A6A",
"6 	c #656565",
"7 	c #A3A3A3",
"8 	c #999999",
"9 	c #919292",
"0 	c #7C7C7C",
"a 	c #D2BDC0",
"b 	c #4E4A49",
"c 	c #393939",
"d 	c #333333",
"e 	c #696969",
"f 	c #7E7E7E",
"g 	c #828282",
"h 	c #787878",
"i 	c #CCCCCC",
"j 	c #E0E0E0",
"k 	c #818181",
"l 	c #6F6E6E",
"m 	c #D4BBC4",
"n 	c #3D3C3C",
"o 	c #525252",
"p 	c #3F3F3F",
"q 	c #737373",
"r 	c #A8A8A8",
"s 	c #BCBCBC",
"t 	c #878787",
"u 	c #9D9D9D",
"v 	c #D7D7D7",
"w 	c #F3F3F3",
"x 	c #FBFBFB",
"y 	c #636363",
"z 	c #5F5D5E",
"A 	c #8A8288",
"B 	c #1B1B1B",
"C 	c #2B2B2B",
"D 	c #4A4A4A",
"E 	c #626262",
"F 	c #CDCDCD",
"G 	c #F7F7F7",
"H 	c #B2B2B0",
"I 	c #3E3E3E",
"J 	c #7D7D7D",
"K 	c #FAFAFA",
"L 	c #565757",
"M 	c #656263",
"N 	c #3B3B3B",
"O 	c #141414",
"P 	c #232323",
"Q 	c #3C3C3C",
"R 	c #B8B8B8",
"S 	c #BBBBBB",
"T 	c #757575",
"U 	c #B7B8B1",
"V 	c #C0C0B1",
"W 	c #7E7E7D",
"X 	c #C5C5C5",
"Y 	c #F9F9F9",
"Z 	c #6F6F6F",
"` 	c #353535",
" .	c #303030",
"..	c #C3B7B8",
"+.	c #BCBABA",
"@.	c #161616",
"#.	c #0E0E0E",
"$.	c #181818",
"%.	c #282828",
"&.	c #454545",
"*.	c #CECECE",
"=.	c #DCDCDC",
"-.	c #E7E4E2",
";.	c #F1D895",
">.	c #D8B92A",
",.	c #CCCAA3",
"'.	c #8F8F8F",
").	c #1F1F1F",
"!.	c #C7C3C3",
"~.	c #B5B3B4",
"{.	c #1C1C1C",
"].	c #040404",
"^.	c #090909",
"/.	c #111111",
"(.	c #535353",
"_.	c #B0B0B0",
":.	c #CACACA",
"<.	c #B4ADA6",
"[.	c #EEA704",
"}.	c #FCCD00",
"|.	c #E5DC72",
"1.	c #EEEEEE",
"2.	c #CFCFCF",
"3.	c #595959",
"4.	c #1E1E1E",
"5.	c #171717",
"6.	c #8E8D8D",
"7.	c #C5C5C4",
"8.	c #000000",
"9.	c #080808",
"0.	c #292929",
"a.	c #D9D9D9",
"b.	c #EFEFEF",
"c.	c #F4F4F4",
"d.	c #F6F6F6",
"e.	c #D4D3D4",
"f.	c #B69032",
"g.	c #FDC302",
"h.	c #F6EDAD",
"i.	c #FFFFFE",
"j.	c #FFFFFF",
"k.	c #EAEAEA",
"l.	c #2F2F2F",
"m.	c #0F0F0F",
"n.	c #131314",
"o.	c #C7BAC6",
"p.	c #373737",
"q.	c #010101",
"r.	c #E2E2E2",
"s.	c #E8E8E8",
"t.	c #F2F2F2",
"u.	c #B4A991",
"v.	c #E6B01B",
"w.	c #FAF1D4",
"x.	c #FEFEFE",
"y.	c #FCFCFC",
"z.	c #D5D5D5",
"A.	c #030303",
"B.	c #433D42",
"C.	c #E2C5E0",
"D.	c #A09F9F",
"E.	c #2D2D2D",
"F.	c #939393",
"G.	c #E6E6E6",
"H.	c #EBEBEB",
"I.	c #DFE0DD",
"J.	c #CFBE98",
"K.	c #F8F4EA",
"L.	c #707070",
"M.	c #606060",
"N.	c #6F6C71",
"O.	c #91808E",
"P.	c #E5E4E4",
"Q.	c #D6CED1",
"R.	c #BDBDBD",
"S.	c #464646",
"T.	c #DEDEDE",
"U.	c #E4E4E4",
"V.	c #ECECEC",
"W.	c #F0F0F0",
"X.	c #EEEEEC",
"Y.	c #F7F7F6",
"Z.	c #F8F8F8",
"`.	c #F5F5F5",
" +	c #EBE6E9",
".+	c #D8AACD",
"++	c #827D80",
"@+	c #D3BFC4",
"#+	c #D4D4D4",
"$+	c #DADADA",
"%+	c #E5E5E5",
"&+	c #E9E9E9",
"*+	c #EDEDED",
"=+	c #F1F1F1",
"-+	c #E7E7E7",
";+	c #EED4EB",
">+	c #D6B4BC",
",+	c #AFAEAE",
"'+	c #D1D1D1",
")+	c #E1E1E1",
"!+	c #EBECEB",
"~+	c #B5ABB0",
"{+	c #CAC2C3",
"]+	c #C7C7C7",
"^+	c #D3D3D3",
"/+	c #D8D8D8",
"(+	c #E3E3E3",
"_+	c #E2DEDE",
":+	c #B6B8B7",
"<+	c #BCBDBD",
"[+	c #CECFCE",
"}+	c #D2D3D3",
"|+	c #E3E2E2",
"1+	c #D0C2C4",
"2+	c #FDF0EB",
"3+	c #D5B175",
"4+	c #E2D4B1",
"5+	c #E6D8B2",
"6+	c #E9D591",
"7+	c #E4C08E",
"8+	c #DBD8D6",
"9+	c #DDDDDD",
"0+	c #E0DFE2",
"a+	c #E4C18B",
"b+	c #EDC178",
"c+	c #EEBD84",
"d+	c #E8E5E3",
"e+	c #BCA0A4",
"f+	c #FAA125",
"g+	c #FCB019",
"h+	c #FADB7B",
"i+	c #FBEDB8",
"j+	c #FBF0CA",
"k+	c #FAE3AC",
"l+	c #EACE89",
"m+	c #D6D1CC",
"n+	c #D5D3DD",
"o+	c #E4CC94",
"p+	c #F6DDA0",
"q+	c #F7E6C0",
"r+	c #FBE5B9",
"s+	c #FBD47C",
"t+	c #FAC63C",
"u+	c #DAB39C",
"v+	c #FDBD70",
"w+	c #FEB902",
"x+	c #FECE01",
"y+	c #FDDE0C",
"z+	c #FCE622",
"A+	c #FDE537",
"B+	c #FDD41C",
"C+	c #E2BE76",
"D+	c #D6C9A1",
"E+	c #FDC13E",
"F+	c #FDE16F",
"G+	c #FDE554",
"H+	c #FCE320",
"I+	c #FDD803",
"J+	c #FDC902",
"K+	c #F1BF69",
"L+	c #FCBF2D",
"M+	c #FBD800",
"N+	c #FEEA00",
"O+	c #FEF300",
"P+	c #FEED00",
"Q+	c #FDDB01",
"R+	c #EAC660",
"S+	c #D5C5A1",
"T+	c #F9BF0A",
"U+	c #FCD800",
"V+	c #FDF101",
"W+	c #FBEA01",
"X+	c #FCD631",
"Y+	c #F4C395",
"Z+	c #F6E5AF",
"`+	c #FDD837",
" @	c #FBE00C",
".@	c #FDDB0F",
"+@	c #FBD757",
"@@	c #EBD1BF",
"#@	c #E2CDD0",
"$@	c #F3CD8D",
"%@	c #FDDF40",
"&@	c #FDE423",
"*@	c #FCEB3E",
"=@	c #FBDF7A",
"-@	c #E8C1AF",
";@	c #D8A5B7",
"                . + @ # $ %                 ",
"              & * = - ; > , ' ) !           ",
"          ~ { ] ^ / ( _ _ : < [ }           ",
"          | 1 2 3 4 5 6 7 ; 8 9 0 a         ",
"        b c 5 d e f g 6 h i j _ k l         ",
"      m n d o p q r s t u v w x ^ y z       ",
"      A B C D 5 E F G o H I J K f L M       ",
"      N O P Q R S T 6 U V W X Y Z `  ...    ",
"    +.@.#.$.%.&.*.=.-.;.>.,.j '.I %.).!.    ",
"  ~.{.].^./.(._.:.v <.[.}.|.1.2.3.4.5.6.    ",
"7.(.].8.9.0.a.b.c.d.e.f.g.h.i.j.k.l.m.n.o.  ",
"8 p.q.8.5.r.s.1.t.d.d.u.v.w.x.x.y.z.B A.B.C.",
"D.E. .8.F.j G.H.b.w d.I.J.K.x x Y w L.M.N.O.",
"P.Q.R.S.i T.U.s.V.W.w t.X.Y.Z.G `.w *. +.+++",
"    @+q #+$+j %+&+*+W.=+w c.c.w =+b.-+;+    ",
"    >+,+'+v =.)+U.s.H.*+1.b.b.1.*+H.!+~+    ",
"      {+]+^+/+=.j (+G.-+&+&+&+&+s.-+_+      ",
"      :+<+[+}+v $+T.j r.(+%+U.(+r.|+1+      ",
"      2+3+4+5+6+7+8+$+9+9+0+a+b+c+d+e+      ",
"      f+g+h+i+j+k+l+m+n+o+p+q+r+s+t+u+      ",
"      v+w+x+y+z+A+B+C+D+E+F+G+H+I+J+K+      ",
"        L+M+N+O+P+Q+R+S+T+U+N+V+W+X+Y+      ",
"          Z+`+ @.@+@@@#@$@%@&@*@=@-@;@      "};
