/* XPM */
static const char * xpm_nextblack[] = {
"32 20 49 1",
" 	c None",
".	c #000000",
"+	c #FFFFFF",
"@	c #010101",
"#	c #030303",
"$	c #040404",
"%	c #727170",
"&	c #030302",
"*	c #0E0D0D",
"=	c #0C0C0C",
"-	c #7B7B7A",
";	c #6C6B6A",
">	c #0D0C0C",
",	c #151514",
"'	c #7F7E7D",
")	c #7D7C7B",
"!	c #0F0E0D",
"~	c #1E1D1C",
"{	c #828180",
"]	c #B0AFAC",
"^	c #908F8D",
"/	c #060605",
"(	c #111110",
"_	c #292926",
":	c #8C8B89",
"<	c #BDBCB9",
"[	c #D0CECC",
"}	c #CDCDCD",
"|	c #8F8E8C",
"1	c #C7C6C3",
"2	c #D2D1CE",
"3	c #9D9C9A",
"4	c #D8D7D5",
"5	c #0D0C0B",
"6	c #1A1917",
"7	c #363533",
"8	c #A19F9D",
"9	c #C7C6C4",
"0	c #11100E",
"a	c #1D1C19",
"b	c #3B3835",
"c	c #A7A6A3",
"d	c #131210",
"e	c #211F1C",
"f	c #3E3C39",
"g	c #151412",
"h	c #322F2B",
"i	c #474542",
"j	c #F3F3F3",
"                                ",
"                                ",
"                                ",
"          .       .....+        ",
"          ..      .@#$.+        ",
"          .%.     .&*=.+        ",
"          .-;.    .&>,.+        ",
"           .').   .#!~.+        ",
"           .{]^.  ./(_.+        ",
"            .:<[.}./(_.+        ",
"           .|12.+ ./(_.+        ",
"           .34.+  .567.+        ",
"          .89.+   .0ab.+        ",
"          .c.+    .def.+        ",
"          ..+     .ghi.+        ",
"          .+      .....+        ",
"          +       +++++j        ",
"                                ",
"                                ",
"                                "};
