<?xml version="1.0" encoding="UTF-8" standalone="no"?>
<!-- Created with Inkscape (http://www.inkscape.org/) -->

<svg
   width="100mm"
   height="100mm"
   viewBox="0 0 100 100"
   version="1.1"
   id="svg5"
   inkscape:version="1.1.1 (3bf5ae0d25, 2021-09-20)"
   sodipodi:docname="info.svg"
   inkscape:export-filename="info.png"
   inkscape:export-xdpi="6.0959997"
   inkscape:export-ydpi="6.0959997"
   xmlns:inkscape="http://www.inkscape.org/namespaces/inkscape"
   xmlns:sodipodi="http://sodipodi.sourceforge.net/DTD/sodipodi-0.dtd"
   xmlns:xlink="http://www.w3.org/1999/xlink"
   xmlns="http://www.w3.org/2000/svg"
   xmlns:svg="http://www.w3.org/2000/svg"
   xmlns:rdf="http://www.w3.org/1999/02/22-rdf-syntax-ns#"
   xmlns:cc="http://creativecommons.org/ns#"
   xmlns:dc="http://purl.org/dc/elements/1.1/">
  <metadata
     id="metadata23">
    <rdf:RDF>
      <cc:Work
         rdf:about="">
        <dc:format>image/svg+xml</dc:format>
        <dc:type
           rdf:resource="http://purl.org/dc/dcmitype/StillImage" />
      </cc:Work>
    </rdf:RDF>
  </metadata>
  <sodipodi:namedview
     id="namedview7"
     pagecolor="#ffffff"
     bordercolor="#111111"
     borderopacity="1"
     inkscape:pageshadow="0"
     inkscape:pageopacity="0"
     inkscape:pagecheckerboard="1"
     inkscape:document-units="mm"
     showgrid="true"
     width="100mm"
     inkscape:zoom="1.28"
     inkscape:cx="91.796875"
     inkscape:cy="233.98438"
     inkscape:window-width="1920"
     inkscape:window-height="1027"
     inkscape:window-x="0"
     inkscape:window-y="0"
     inkscape:window-maximized="1"
     inkscape:current-layer="layer1">
    <inkscape:grid
       type="xygrid"
       id="grid9"
       dotted="false" />
  </sodipodi:namedview>
  <defs
     id="defs2">
    <linearGradient
       id="linearGradient8370">
      <stop
         id="stop8372"
         offset="0"
         style="stop-color:#93beff;stop-opacity:1;" />
      <stop
         style="stop-color:#0051c2;stop-opacity:1"
         offset="0.31906292"
         id="stop8374" />
      <stop
         id="stop3815"
         offset="0.78962582"
         style="stop-color:#3379cf;stop-opacity:0.648;" />
      <stop
         id="stop8376"
         offset="1"
         style="stop-color:#6497ff;stop-opacity:0.22400001;" />
    </linearGradient>
    <linearGradient
       gradientTransform="matrix(0.56620479,0,0,0.56620479,52.192838,132.30691)"
       y2="382.43231"
       x2="364.46329"
       y1="762.08081"
       x1="365.95328"
       gradientUnits="userSpaceOnUse"
       id="linearGradient8068"
       xlink:href="#linearGradient8087"
       inkscape:collect="always" />
    <linearGradient
       id="linearGradient8087">
      <stop
         id="stop8089"
         offset="0"
         style="stop-color:#60abff;stop-opacity:1;" />
      <stop
         id="stop8091"
         offset="1"
         style="stop-color:#1648ff;stop-opacity:1;" />
    </linearGradient>
    <linearGradient
       inkscape:collect="always"
       xlink:href="#linearGradient8400"
       id="linearGradient8398"
       x1="118.34174"
       y1="504.85635"
       x2="495.97983"
       y2="504.85635"
       gradientUnits="userSpaceOnUse"
       gradientTransform="matrix(0.64067467,0,0,0.64067467,25.037795,91.398632)" />
    <linearGradient
       id="linearGradient8400">
      <stop
         id="stop8402"
         offset="0"
         style="stop-color:#a5bbed;stop-opacity:1;" />
      <stop
         id="stop8404"
         offset="1"
         style="stop-color:#a5cced;stop-opacity:0;" />
    </linearGradient>
    <linearGradient
       inkscape:collect="always"
       xlink:href="#linearGradient8386"
       id="linearGradient8384"
       x1="131.82758"
       y1="458.35526"
       x2="572.91687"
       y2="458.35526"
       gradientUnits="userSpaceOnUse"
       gradientTransform="matrix(0.64067467,0,0,0.64067467,25.037795,91.398632)" />
    <linearGradient
       id="linearGradient8386">
      <stop
         style="stop-color:#e7f0ff;stop-opacity:1;"
         offset="0"
         id="stop8388" />
      <stop
         style="stop-color:#9db4ff;stop-opacity:1;"
         offset="1"
         id="stop8390" />
    </linearGradient>
    <linearGradient
       inkscape:collect="always"
       xlink:href="#linearGradient8158"
       id="linearGradient8156"
       x1="382.78458"
       y1="789.21448"
       x2="376.20898"
       y2="559.21448"
       gradientUnits="userSpaceOnUse"
       gradientTransform="matrix(0.64067467,0,0,0.64067467,25.037795,91.398632)" />
    <linearGradient
       id="linearGradient8158">
      <stop
         style="stop-color:#a5cfff;stop-opacity:1;"
         offset="0"
         id="stop8160" />
      <stop
         style="stop-color:#167eff;stop-opacity:1;"
         offset="1"
         id="stop8162" />
    </linearGradient>
    <linearGradient
       gradientTransform="matrix(0.64067467,0,0,0.64067467,23.987318,90.342687)"
       y2="577.39722"
       x2="388.33081"
       y1="817.49878"
       x1="384.80487"
       gradientUnits="userSpaceOnUse"
       id="linearGradient8179"
       xlink:href="#linearGradient8158-9"
       inkscape:collect="always" />
    <linearGradient
       id="linearGradient8158-9">
      <stop
         style="stop-color:#a5cfff;stop-opacity:1;"
         offset="0"
         id="stop8160-6" />
      <stop
         style="stop-color:#166eff;stop-opacity:1;"
         offset="1"
         id="stop8162-5" />
    </linearGradient>
    <linearGradient
       y2="508.30222"
       x2="371.92328"
       y1="759.90137"
       x1="382.78458"
       gradientTransform="matrix(0.64067467,0,0,-0.59324097,23.987319,768.08595)"
       gradientUnits="userSpaceOnUse"
       id="linearGradient8213"
       xlink:href="#linearGradient8318-7"
       inkscape:collect="always" />
    <linearGradient
       id="linearGradient8318-7">
      <stop
         id="stop8320-0"
         offset="0"
         style="stop-color:#a5c7ff;stop-opacity:1;" />
      <stop
         id="stop8322-9"
         offset="1"
         style="stop-color:#6085ff;stop-opacity:1;" />
    </linearGradient>
    <radialGradient
       inkscape:collect="always"
       xlink:href="#linearGradient8370"
       id="radialGradient3873"
       cx="347.68933"
       cy="577.14252"
       fx="347.68933"
       fy="577.14252"
       r="242.47476"
       gradientTransform="matrix(0.55291153,-0.17200771,0.20369373,0.6547649,-2.6129831,155.40447)"
       gradientUnits="userSpaceOnUse" />
    <linearGradient
       gradientTransform="matrix(0.53789455,0,0,0.53789455,62.382649,149.45949)"
       y2="313.38428"
       x2="436.73236"
       y1="582.58575"
       x1="286.0639"
       gradientUnits="userSpaceOnUse"
       id="linearGradient8068-2"
       xlink:href="#linearGradient8235"
       inkscape:collect="always" />
    <linearGradient
       id="linearGradient8235">
      <stop
         id="stop8231"
         offset="0"
         style="stop-color:#ffffff;stop-opacity:0" />
      <stop
         id="stop8233"
         offset="1"
         style="stop-color:#ffffff;stop-opacity:0.81664485" />
    </linearGradient>
    <filter
       inkscape:collect="always"
       style="color-interpolation-filters:sRGB"
       id="filter1224"
       x="-0.53802881"
       y="-0.12964546"
       width="2.0760576"
       height="1.2592909">
      <feGaussianBlur
         inkscape:collect="always"
         stdDeviation="1.3308904"
         id="feGaussianBlur1226" />
    </filter>
    <filter
       inkscape:collect="always"
       style="color-interpolation-filters:sRGB"
       id="filter1228"
       x="-0.19963356"
       y="-0.19963356"
       width="1.3992671"
       height="1.3992671">
      <feGaussianBlur
         inkscape:collect="always"
         stdDeviation="1.3308904"
         id="feGaussianBlur1230" />
    </filter>
  </defs>
  <g
     inkscape:label="Réteg 1"
     inkscape:groupmode="layer"
     id="layer1">
    <g
       id="g15516"
       transform="matrix(0.238125,0,0,0.238125,-11.592554,-55.569897)">
      <path
         id="path7485-5"
         style="color:#000000;display:inline;overflow:visible;visibility:visible;fill:#0b68ff;fill-opacity:1;stroke:none;stroke-width:0.320337;marker:none;enable-background:accumulate"
         d="M 426.27587,443.30826 C 426.2594,351.29227 352.06848,276.49279 260.0557,275.72466 167.48528,274.95187 91.815668,349.36856 91.042886,441.93899 90.270105,534.5094 164.68679,610.17901 257.25722,610.9518 c 92.57041,0.77278 168.24002,-73.64391 169.01281,-166.21433 m 21.35616,0.17829 C 446.75495,549.28086 361.44404,633.1792 257.07894,632.30795 152.71385,631.43671 68.815499,546.1258 69.686742,441.7607 70.557986,337.39561 155.86889,253.49726 260.23399,254.36851 363.9704,255.2345 447.61422,339.56442 447.63277,443.30444"
         inkscape:connector-curvature="0" />
      <path
         inkscape:connector-curvature="0"
         id="path7485-5-0"
         style="color:#000000;display:inline;overflow:visible;visibility:visible;fill:url(#linearGradient8068);fill-opacity:1;stroke:none;stroke-width:0.320337;marker:none;enable-background:accumulate"
         d="m 410.14601,432.50483 c -2.22416,-79.35188 -69.49696,-145.23008 -150.81448,-145.90892 -81.81034,-0.68296 -157.18337,69.16512 -157.86632,157.44726 -0.63289,81.81074 73.65414,158.79811 155.46449,159.48107 81.81035,0.68295 153.21463,-84.01575 153.25042,-170.35635 m 16.28983,11.4836 c -0.76998,92.23405 -77.1354,167.432 -169.36945,166.66202 C 164.86646,610.54354 89.737909,534.17812 90.507885,441.94407 91.277854,349.71002 167.89746,274.99746 260.13151,275.76743 c 91.67844,0.76534 166.24696,75.69752 166.26336,167.37914"
         sodipodi:nodetypes="csssccsssc" />
      <path
         style="fill:url(#linearGradient8398);fill-opacity:1;stroke:none;stroke-width:0.640675"
         d="m 342.47917,312.75682 c -45.8556,-32.32476 -132.81395,-45.09769 -197.22785,23.13665 -64.413885,68.23434 -50.659397,154.06526 -7.06821,207.28688 -10.00109,-17.72706 -18.96626,-38.52905 -24.30807,-60.84355 0.40771,-46.08811 2.36638,-107.72352 36.06833,-143.85461 59.84354,-64.15691 147.90414,-53.6349 192.5358,-25.72537 z"
         id="path8112"
         inkscape:connector-curvature="0"
         sodipodi:nodetypes="czccsc" />
      <path
         style="opacity:0.686992;fill:url(#linearGradient8384);fill-opacity:1;stroke:none;stroke-width:0.640675"
         d="M 392.09111,366.97255 C 354.3198,292.86309 258.24988,268.9418 185.84481,310.26518 c -62.93815,35.92036 -65.6317,91.1297 -68.84756,120.7958 8.1374,-48.16457 40.37096,-92.11905 90.0141,-112.48679 56.71691,-23.26998 141.65441,-4.3847 185.07976,48.39836 z"
         id="path8112-1"
         inkscape:connector-curvature="0"
         sodipodi:nodetypes="cscsc" />
      <path
         style="opacity:0.955285;fill:url(#linearGradient8156);fill-opacity:1;stroke:none;stroke-width:0.640675"
         d="m 113.1756,480.80192 c 5.40468,21.65315 13.68779,44.72972 25.64144,63.05455 39.00481,49.31624 102.35421,71.76479 159.90122,53.20117 57.54701,-18.56361 109.93303,-86.3529 111.6362,-153.76061 -7.0394,55.73244 -47.02715,120.97068 -120.39491,139.5633 C 216.59178,601.45295 142.84952,548.09529 113.1756,480.80192 Z"
         id="path8112-1-2"
         inkscape:connector-curvature="0"
         sodipodi:nodetypes="cczczc" />
      <path
         style="fill:url(#linearGradient8179);fill-opacity:1;stroke:none;stroke-width:0.640675"
         d="m 114.41324,452.28849 c -0.54443,11.12778 -0.26976,18.18748 -0.21435,30.10556 18.86932,46.11287 70.43859,103.68039 147.09922,104.61695 76.66063,0.93656 147.60831,-77.55061 149.14993,-145.22754 -7.0394,18.66483 -90.97062,32.00192 -147.86389,33.66243 -56.89327,1.6605 -135.4291,-5.74513 -148.17091,-23.1574 z"
         id="path8112-1-2-8"
         inkscape:connector-curvature="0"
         sodipodi:nodetypes="cczczc" />
      <path
         style="opacity:0.686992;fill:url(#linearGradient8213);fill-opacity:1;stroke:none;stroke-width:0.640675"
         d="m 114.18443,451.92896 c 5.67908,-87.97736 75.72687,-144.70792 147.78862,-144.2761 49.91328,0.2991 103.48305,24.88465 130.91388,59.29596 10.44007,21.51559 20.41482,45.20657 17.56111,74.14818 -1.09027,16.81009 -91.29898,35.29714 -148.64987,35.59007 -57.3509,0.29293 -130.98212,-4.72887 -147.61374,-24.75811 z"
         id="path8112-1-2-8-1"
         inkscape:connector-curvature="0"
         sodipodi:nodetypes="cscczc" />
      <path
         style="opacity:0.48374;fill:url(#radialGradient3873);fill-opacity:1;stroke:none;stroke-width:0.640675"
         d="m 100.06706,442.81596 c 0.13457,-11.78694 2.09274,-18.45181 2.09274,-18.45181 25.90608,-11.41111 65.59454,-14.67792 77.80945,-13.32803 9.99908,-18.79799 33.59372,-52.10843 49.37052,-64.62072 -7.95593,-4.29423 -19.56893,-15.66889 -34.04249,-21.71875 20.88235,-11.08298 44.12995,-17.00133 67.59103,-16.86074 49.91328,0.2991 102.51228,22.61952 130.91388,59.29596 10.44008,21.51558 19.27076,46.35063 16.41705,75.29224 -3.3784,17.03891 -88.21338,33.34411 -145.56427,33.63704 -60.89095,-0.33251 -127.51011,0.74183 -164.58791,-33.24519 z"
         id="path8112-1-2-8-1-1"
         inkscape:connector-curvature="0"
         sodipodi:nodetypes="cccccscccc" />
      <path
         style="color:#000000;display:inline;overflow:visible;visibility:visible;fill:#014dd8;fill-opacity:0.496352;stroke:none;stroke-width:0.30432;marker:none;enable-background:accumulate"
         d="M 418.01723,447.61652 C 417.28575,535.23887 344.7386,606.67692 257.11625,605.94544 169.49392,605.21397 98.121798,532.66682 98.853268,445.04447 99.584738,357.42212 172.37337,286.44519 259.99571,287.17666 c 87.09452,0.72707 157.93462,71.91265 157.9502,159.01018"
         id="path7909-2" />
      <path
         style="color:#000000;display:inline;overflow:visible;visibility:visible;fill:url(#linearGradient8068-2);fill-opacity:1;stroke:none;stroke-width:0.30432;marker:none;enable-background:accumulate"
         d="M 417.94591,446.18684 C 417.21443,533.80919 344.66728,605.24724 257.04493,604.51576 169.4226,603.78429 98.050476,531.23714 98.781947,443.61479 99.513419,355.99244 172.30205,285.01551 259.92439,285.74698 c 87.09452,0.72707 157.93462,71.91265 157.9502,159.01018"
         id="path7909" />
    </g>
    <circle
       style="fill:#001b7b;fill-opacity:1;stroke:none;stroke-width:4.65171;stroke-linecap:round;stroke-linejoin:round;filter:url(#filter1228)"
       id="circle1184"
       cx="50"
       cy="22.166769"
       r="8"
       transform="matrix(0.95,0,0,0.95,2.5015625,2.5002631)" />
    <circle
       style="fill:#ffffff;fill-opacity:1;stroke:none;stroke-width:4.41912;stroke-linecap:round;stroke-linejoin:round"
       id="path1567"
       cx="50.001564"
       cy="23.558693"
       r="7.5999999" />
    <rect
       style="fill:#001b7b;fill-opacity:1;stroke:#001b7b;stroke-width:5;stroke-linecap:round;stroke-linejoin:round;stroke-miterlimit:4;stroke-dasharray:none;stroke-opacity:1;filter:url(#filter1224)"
       id="rect1186"
       width="10.583331"
       height="43.920837"
       x="44.979168"
       y="39.422916"
       transform="matrix(0.95,0,0,0.95,2.5015625,2.5002631)" />
    <rect
       style="fill:#ffffff;fill-opacity:1;stroke:#ffffff;stroke-width:4.75;stroke-linecap:round;stroke-linejoin:round;stroke-miterlimit:4;stroke-dasharray:none;stroke-opacity:1"
       id="rect1671"
       width="10.054165"
       height="41.724796"
       x="45.231773"
       y="39.952034" />
  </g>
</svg>
