<?xml version="1.0" encoding="UTF-8" standalone="no"?>
<!-- Created with Inkscape (http://www.inkscape.org/) -->

<svg
   width="100mm"
   height="100mm"
   viewBox="0 0 99.999998 100"
   version="1.1"
   id="svg8617"
   inkscape:version="1.2.2 (b0a8486541, 2022-12-01)"
   sodipodi:docname="redo.svg"
   inkscape:export-filename="redo.png"
   inkscape:export-xdpi="6.0959997"
   inkscape:export-ydpi="6.0959997"
   xmlns:inkscape="http://www.inkscape.org/namespaces/inkscape"
   xmlns:sodipodi="http://sodipodi.sourceforge.net/DTD/sodipodi-0.dtd"
   xmlns="http://www.w3.org/2000/svg"
   xmlns:svg="http://www.w3.org/2000/svg"
   xmlns:rdf="http://www.w3.org/1999/02/22-rdf-syntax-ns#"
   xmlns:cc="http://creativecommons.org/ns#">
  <sodipodi:namedview
     id="namedview8619"
     pagecolor="#505050"
     bordercolor="#ffffff"
     borderopacity="1"
     inkscape:showpageshadow="0"
     inkscape:pageopacity="0"
     inkscape:pagecheckerboard="1"
     inkscape:deskcolor="#505050"
     inkscape:document-units="mm"
     showgrid="true"
     inkscape:zoom="0.5"
     inkscape:cx="457"
     inkscape:cy="250"
     inkscape:window-width="1436"
     inkscape:window-height="861"
     inkscape:window-x="0"
     inkscape:window-y="0"
     inkscape:window-maximized="1"
     inkscape:current-layer="layer1">
    <inkscape:grid
       type="xygrid"
       id="grid8621"
       originx="0"
       originy="0" />
  </sodipodi:namedview>
  <defs
     id="defs8614">
    <filter
       inkscape:collect="always"
       style="color-interpolation-filters:sRGB"
       id="filter9146"
       x="-0.10620119"
       y="-0.15020974"
       width="1.1972218"
       height="1.251452">
      <feGaussianBlur
         inkscape:collect="always"
         stdDeviation="0.11056618"
         id="feGaussianBlur9148" />
    </filter>
  </defs>
  <rect
     x="1.4700012"
     y="1.4700012"
     width="97.059998"
     height="97.059998"
     color="#000000"
     fill="none"
     opacity="0.6538"
     stroke-width="0.8323"
     id="rect43"
     style="display:inline" />
  <g
     inkscape:label="undo"
     inkscape:groupmode="layer"
     id="layer1"
     transform="matrix(-13.924418,0,0,13.924418,93.594673,10.913458)">
    <path
       id="path9135"
       style="display:inline;opacity:1;mix-blend-mode:normal;fill:none;stroke:#000000;stroke-width:0.529167;stroke-dasharray:none;stroke-dashoffset:68.8925;stroke-opacity:1;filter:url(#filter9146);stop-color:#000000"
       inkscape:label="shadow"
       inkscape:transform-center-x="-1.4704973"
       inkscape:transform-center-y="-1.4710778"
       d="M 0.26388988,3.2640518 3.2048842,2.5850928 0.94258086,0.32189643 Z M 3.4689112,0.31800913 A 2.6171988,2.6171988 0 0 0 1.6627712,1.042737 L 2.4857576,1.8662912 A 1.4539993,1.4539993 0 0 1 3.4689112,1.4812085 1.4539993,1.4539993 0 0 1 4.9229106,2.935208 1.4539993,1.4539993 0 0 1 3.4689112,4.3892073 V 5.5524069 A 2.6171988,2.6171988 0 0 0 6.0861101,2.9352081 2.6171988,2.6171988 0 0 0 3.4689112,0.31800913 Z" />
    <path
       id="path8848"
       style="display:inline;opacity:1;fill:#ffff00;fill-opacity:1;stroke-width:1.198;stroke-dashoffset:68.8925;stop-color:#000000"
       inkscape:label="arrow"
       inkscape:transform-center-x="-1.4704973"
       inkscape:transform-center-y="-1.4710778"
       d="M 0.26388988,3.2640518 3.2048842,2.5850928 0.94258086,0.32189643 Z M 3.4689112,0.31800913 A 2.6171988,2.6171988 0 0 0 1.6627712,1.042737 L 2.4857576,1.8662912 A 1.4539993,1.4539993 0 0 1 3.4689112,1.4812085 1.4539993,1.4539993 0 0 1 4.9229106,2.935208 1.4539993,1.4539993 0 0 1 3.4689112,4.3892073 V 5.5524069 A 2.6171988,2.6171988 0 0 0 6.0861101,2.9352081 2.6171988,2.6171988 0 0 0 3.4689112,0.31800913 Z" />
  </g>
  <metadata
     id="metadata189219">
    <rdf:RDF>
      <cc:License
         rdf:about="http://creativecommons.org/licenses/by-sa/4.0/">
        <cc:permits
           rdf:resource="http://creativecommons.org/ns#Reproduction" />
        <cc:permits
           rdf:resource="http://creativecommons.org/ns#Distribution" />
        <cc:requires
           rdf:resource="http://creativecommons.org/ns#Notice" />
        <cc:requires
           rdf:resource="http://creativecommons.org/ns#Attribution" />
        <cc:permits
           rdf:resource="http://creativecommons.org/ns#DerivativeWorks" />
        <cc:requires
           rdf:resource="http://creativecommons.org/ns#ShareAlike" />
      </cc:License>
      <cc:Work
         rdf:about="">
        <cc:license
           rdf:resource="http://creativecommons.org/licenses/by-sa/4.0/" />
      </cc:Work>
    </rdf:RDF>
  </metadata>
</svg>
