<?xml version="1.0" encoding="UTF-8" standalone="no"?>
<svg
   width="100mm"
   height="100mm"
   version="1.1"
   viewBox="0 0 100 100"
   id="svg36"
   sodipodi:docname="script9.svg"
   inkscape:version="1.3.2 (091e20ef0f, 2023-11-25)"
   xmlns:inkscape="http://www.inkscape.org/namespaces/inkscape"
   xmlns:sodipodi="http://sodipodi.sourceforge.net/DTD/sodipodi-0.dtd"
   xmlns:xlink="http://www.w3.org/1999/xlink"
   xmlns="http://www.w3.org/2000/svg"
   xmlns:svg="http://www.w3.org/2000/svg">
  <sodipodi:namedview
     id="namedview36"
     pagecolor="#ffffff"
     bordercolor="#111111"
     borderopacity="1"
     inkscape:showpageshadow="0"
     inkscape:pageopacity="0"
     inkscape:pagecheckerboard="1"
     inkscape:deskcolor="#d1d1d1"
     inkscape:document-units="mm"
     inkscape:zoom="2.1722292"
     inkscape:cx="188.97638"
     inkscape:cy="188.97638"
     inkscape:window-width="1920"
     inkscape:window-height="1018"
     inkscape:window-x="0"
     inkscape:window-y="0"
     inkscape:window-maximized="1"
     inkscape:current-layer="svg36" />
  <defs
     id="defs22">
    <filter
       id="filter1"
       x="-0.091222334"
       y="-0.063676264"
       width="1.1824447"
       height="1.1273525"
       color-interpolation-filters="sRGB">
      <feGaussianBlur
         stdDeviation="1.4885813"
         id="feGaussianBlur1" />
    </filter>
    <linearGradient
       id="linearGradient3120">
      <stop
         offset="0"
         id="stop1" />
      <stop
         stop-opacity="0"
         offset="1"
         id="stop2" />
    </linearGradient>
    <linearGradient
       id="linearGradient6715"
       x1="303"
       x2="303"
       y1="367"
       y2="610"
       gradientTransform="matrix(2.77 0 0 1.97 -1892 -873)"
       gradientUnits="userSpaceOnUse">
      <stop
         stop-opacity="0"
         offset="0"
         id="stop3" />
      <stop
         offset=".5"
         id="stop4" />
      <stop
         stop-opacity="0"
         offset="1"
         id="stop5" />
    </linearGradient>
    <radialGradient
       id="radialGradient6717"
       cx="606"
       cy="487"
       r="117"
       gradientTransform="matrix(2.77 0 0 1.97 -1892 -873)"
       gradientUnits="userSpaceOnUse"
       xlink:href="#linearGradient3120" />
    <radialGradient
       id="radialGradient6719"
       cx="606"
       cy="487"
       r="117"
       gradientTransform="matrix(-2.77 0 0 1.97 113 -873)"
       gradientUnits="userSpaceOnUse"
       xlink:href="#linearGradient3120" />
    <radialGradient
       id="radialGradient15658"
       cx="34"
       cy="35.7"
       r="86.7"
       gradientTransform="matrix(8.02 0 0 8.69 -14.2 -23.1)"
       gradientUnits="userSpaceOnUse">
      <stop
         stop-color="#fafafa"
         offset="0"
         id="stop6" />
      <stop
         stop-color="#bbb"
         offset="1"
         id="stop7" />
    </radialGradient>
    <radialGradient
       id="radialGradient15656"
       cx="8.82"
       cy="3.76"
       r="37.8"
       gradientTransform="matrix(8.08 0 0 8.62 13.8 -17.7)"
       gradientUnits="userSpaceOnUse">
      <stop
         stop-color="#a3a3a3"
         offset="0"
         id="stop8" />
      <stop
         stop-color="#4c4c4c"
         offset="1"
         id="stop9" />
    </radialGradient>
    <radialGradient
       id="radialGradient15668"
       cx="8.14"
       cy="7.27"
       r="38.2"
       gradientTransform="matrix(8.08 0 0 8.62 13.8 -17.7)"
       gradientUnits="userSpaceOnUse">
      <stop
         stop-color="#fff"
         offset="0"
         id="stop10" />
      <stop
         stop-color="#f8f8f8"
         offset="1"
         id="stop11" />
    </radialGradient>
    <radialGradient
       id="radialGradient2283"
       cx="20.9"
       cy="115"
       r="5.26"
       gradientTransform="matrix(.23 0 0 .23 4.61 3.98)"
       gradientUnits="userSpaceOnUse">
      <stop
         stop-color="#F0F0F0"
         offset="0"
         id="stop12" />
      <stop
         stop-color="#9a9a9a"
         offset="1"
         id="stop13" />
    </radialGradient>
    <radialGradient
       id="radialGradient2285"
       cx="20.9"
       cy="64.6"
       r="5.26"
       gradientTransform="matrix(.23 0 0 .23 4.61 3.98)"
       gradientUnits="userSpaceOnUse">
      <stop
         stop-color="#F0F0F0"
         offset="0"
         id="stop14" />
      <stop
         stop-color="#9a9a9a"
         offset="1"
         id="stop15" />
    </radialGradient>
    <linearGradient
       id="linearGradient3773"
       x1="381"
       x2="400"
       y1="12.2"
       y2="296"
       gradientTransform="matrix(.944 0 0 .944 463 149)"
       gradientUnits="userSpaceOnUse">
      <stop
         stop-color="#004c91"
         offset="0"
         id="stop16" />
      <stop
         stop-color="#00d7ff"
         offset="1"
         id="stop17" />
    </linearGradient>
    <linearGradient
       id="linearGradient3"
       x1="720"
       x2="941"
       y1="264"
       y2="264"
       gradientTransform="matrix(3.27 0 0 3.27 764 -250)"
       gradientUnits="userSpaceOnUse">
      <stop
         stop-color="#4dadff"
         offset="0"
         id="stop18" />
      <stop
         stop-color="#0000c0"
         offset=".263"
         id="stop19" />
      <stop
         stop-color="#4dadff"
         offset="1"
         id="stop20" />
    </linearGradient>
    <radialGradient
       id="radialGradient3970-8-5"
       cx="393"
       cy="808"
       r="16.2"
       gradientTransform="matrix(4.34 0 0 4.34 -876 -3175)"
       gradientUnits="userSpaceOnUse">
      <stop
         stop-color="#a8ffff"
         stop-opacity=".718"
         offset="0"
         id="stop21" />
      <stop
         stop-color="#a8ffff"
         stop-opacity="0"
         offset="1"
         id="stop22" />
    </radialGradient>
    <linearGradient
       id="linearGradient6715-5"
       y2="609.51001"
       gradientUnits="userSpaceOnUse"
       x2="302.85999"
       gradientTransform="matrix(2.7744,0,0,1.9697,-1892.2,-872.89)"
       y1="366.64999"
       x1="302.85999"
       inkscape:collect="always">
      <stop
         id="stop5050"
         style="stop-color:black;stop-opacity:0"
         offset="0" />
      <stop
         id="stop5056"
         style="stop-color:black"
         offset=".5" />
      <stop
         id="stop5052"
         style="stop-color:black;stop-opacity:0"
         offset="1" />
    </linearGradient>
    <radialGradient
       id="radialGradient6717-6"
       xlink:href="#linearGradient3120"
       gradientUnits="userSpaceOnUse"
       cy="486.64999"
       cx="605.71002"
       gradientTransform="matrix(2.7744,0,0,1.9697,-1891.6,-872.89)"
       r="117.14"
       inkscape:collect="always" />
    <radialGradient
       id="radialGradient6719-3"
       xlink:href="#linearGradient3120"
       gradientUnits="userSpaceOnUse"
       cy="486.64999"
       cx="605.71002"
       gradientTransform="matrix(-2.7744,0,0,1.9697,112.76,-872.89)"
       r="117.14"
       inkscape:collect="always" />
    <radialGradient
       id="radialGradient15658-8"
       gradientUnits="userSpaceOnUse"
       cy="35.737"
       cx="33.966999"
       gradientTransform="matrix(8.0184784,0,0,8.6914365,-14.197163,-23.120756)"
       r="86.708"
       inkscape:collect="always">
      <stop
         id="stop260"
         style="stop-color:#fafafa"
         offset="0" />
      <stop
         id="stop261"
         style="stop-color:#bbbbbb"
         offset="1" />
    </radialGradient>
    <radialGradient
       id="radialGradient15656-1"
       gradientUnits="userSpaceOnUse"
       cy="3.7560999"
       cx="8.8243999"
       gradientTransform="matrix(8.0834284,0,0,8.6221455,13.799765,-17.723984)"
       r="37.751999"
       inkscape:collect="always">
      <stop
         id="stop270"
         style="stop-color:#a3a3a3"
         offset="0" />
      <stop
         id="stop271"
         style="stop-color:#4c4c4c"
         offset="1" />
    </radialGradient>
    <radialGradient
       id="radialGradient15668-2"
       gradientUnits="userSpaceOnUse"
       cy="7.2679"
       cx="8.1436005"
       gradientTransform="matrix(8.0834284,0,0,8.6221455,13.799765,-17.723984)"
       r="38.159"
       inkscape:collect="always">
      <stop
         id="stop15664"
         style="stop-color:#ffffff"
         offset="0" />
      <stop
         id="stop15666"
         style="stop-color:#f8f8f8"
         offset="1" />
    </radialGradient>
    <radialGradient
       id="radialGradient2283-9"
       gradientUnits="userSpaceOnUse"
       cx="20.892"
       cy="114.57"
       r="5.256"
       gradientTransform="matrix(0.2297,0,0,0.2297,4.6135,3.9798)"
       inkscape:collect="always">
      <stop
         id="stop15566"
         style="stop-color:#F0F0F0"
         offset="0" />
      <stop
         id="stop15568"
         style="stop-color:#9a9a9a"
         offset="1" />
    </radialGradient>
    <radialGradient
       id="radialGradient2285-3"
       gradientUnits="userSpaceOnUse"
       cx="20.892"
       cy="64.568001"
       r="5.257"
       gradientTransform="matrix(0.2297,0,0,0.2297,4.6135,3.9798)"
       inkscape:collect="always">
      <stop
         id="stop15573"
         style="stop-color:#F0F0F0"
         offset="0" />
      <stop
         id="stop15575"
         style="stop-color:#9a9a9a"
         offset="1" />
    </radialGradient>
    <linearGradient
       id="linearGradient3773-9"
       y2="296.07684"
       gradientUnits="userSpaceOnUse"
       x2="399.81485"
       gradientTransform="matrix(0.94359353,0,0,0.94359353,462.71985,149.20956)"
       y1="12.230462"
       x1="380.80832"
       inkscape:collect="always">
      <stop
         id="stop53300"
         style="stop-color:#004c91;stop-opacity:1;"
         offset="0" />
      <stop
         id="stop53302"
         style="stop-color:#00d7ff;stop-opacity:1;"
         offset="1" />
    </linearGradient>
    <linearGradient
       inkscape:collect="always"
       xlink:href="#linearGradient14853"
       id="linearGradient3-0"
       x1="720.00482"
       y1="264.0563"
       x2="940.92719"
       y2="264.0563"
       gradientUnits="userSpaceOnUse" />
    <linearGradient
       id="linearGradient14853"
       x1="50.009998"
       x2="63.5"
       y1="99.980003"
       gradientTransform="matrix(3.2686905,0,0,3.2688514,763.51063,-250.17689)"
       gradientUnits="userSpaceOnUse">
      <stop
         stop-color="#37a3ff"
         offset="0"
         id="stop7-8"
         style="stop-color:#4dadff;stop-opacity:1" />
      <stop
         stop-color="#000091"
         offset=".263"
         id="stop9-8"
         style="stop-color:#0000c0;stop-opacity:1" />
      <stop
         stop-color="#37a3ff"
         offset="1"
         id="stop11-5"
         style="stop-color:#4dadff;stop-opacity:1" />
    </linearGradient>
    <radialGradient
       id="radialGradient3970-8"
       cx="393.29999"
       cy="808.20001"
       r="16.25"
       gradientTransform="matrix(4.3408677,0,0,4.3410816,-875.5931,-3174.5194)"
       gradientUnits="userSpaceOnUse">
      <stop
         stop-color="#a8ffff"
         stop-opacity=".7181"
         offset="0"
         id="stop23" />
      <stop
         stop-color="#a8ffff"
         stop-opacity="0"
         offset="1"
         id="stop25" />
    </radialGradient>
  </defs>
  <g
     id="g4"
     transform="matrix(0.26458333,0,0,0.26458333,-0.19804923,0.16751476)">
    <g
       id="g6707"
       transform="matrix(0.1757739,0,0,0.17421276,343.54508,320.44604)">
      <rect
         id="rect6709"
         style="color:#000000;opacity:0.40206;fill:url(#linearGradient6715-5)"
         height="478.35999"
         width="1339.6"
         y="-150.7"
         x="-1559.3" />
      <path
         id="path6711"
         sodipodi:nodetypes="cccc"
         style="color:#000000;opacity:0.40206;fill:url(#radialGradient6717-6)"
         d="m -219.62,-150.68 v 478.33 c 142.88,0.9 345.4,-107.17 345.4,-239.2 0,-132.02 -159.44,-239.13 -345.4,-239.13 z" />
      <path
         id="path6713"
         sodipodi:nodetypes="cccc"
         style="color:#000000;opacity:0.40206;fill:url(#radialGradient6719-3)"
         d="m -1559.3,-150.68 v 478.33 c -142.8,0.9 -345.4,-107.17 -345.4,-239.2 0,-132.02 159.5,-239.13 345.4,-239.13 z" />
    </g>
    <rect
       id="rect15391"
       style="color:#000000;display:block;fill:url(#radialGradient15658-8);stroke:url(#radialGradient15656-1);stroke-width:8.34832;stroke-linecap:round;stroke-linejoin:round"
       ry="9.5922213"
       height="341.61328"
       width="291.14771"
       y="7.3205609"
       x="40.931808" />
    <rect
       id="rect15660"
       style="color:#000000;display:block;fill:none;stroke:url(#radialGradient15668-2);stroke-width:8.34832;stroke-linecap:round;stroke-linejoin:round"
       rx="1.2443172"
       ry="1.2443172"
       height="325.1337"
       width="273.62457"
       y="15.147111"
       x="49.801899" />
    <g
       id="g2270"
       transform="matrix(8.3483209,0,0,8.3483209,-8.800392,-23.437901)">
      <g
         id="g1440"
         style="fill:#ffffff;stroke:#000000"
         transform="matrix(0.2297,0,0,0.2297,4.9671,4.245)">
        <path
           id="path1448"
           d="m 23.428,113.07 c 0,1.97 -1.6,3.57 -3.573,3.57 -1.974,0 -3.573,-1.6 -3.573,-3.57 0,-1.97 1.6,-3.57 3.573,-3.57 1.973,0 3.573,1.6 3.573,3.57 z" />
        <path
           id="path1456"
           d="m 23.428,63.07 c 0,1.973 -1.6,3.573 -3.573,3.573 -1.974,0 -3.573,-1.6 -3.573,-3.573 0,-1.974 1.6,-3.573 3.573,-3.573 1.973,0 3.573,1.6 3.573,3.573 z" />
      </g>
      <path
         id="path15570"
         style="fill:url(#radialGradient2283-9)"
         d="m 9.995,29.952 c 0,0.454 -0.3675,0.821 -0.8207,0.821 -0.4535,0 -0.8207,-0.368 -0.8207,-0.821 0,-0.453 0.3675,-0.82 0.8207,-0.82 0.4532,0 0.8207,0.367 0.8207,0.82 z" />
      <path
         id="path15577"
         style="fill:url(#radialGradient2285-3)"
         d="m 9.995,18.467 c 0,0.453 -0.3675,0.821 -0.8207,0.821 -0.4535,0 -0.8207,-0.368 -0.8207,-0.821 0,-0.453 0.3675,-0.821 0.8207,-0.821 0.4532,0 0.8207,0.368 0.8207,0.821 z" />
    </g>
    <path
       id="path15672"
       sodipodi:nodetypes="cc"
       style="fill:none;stroke:#000000;stroke-width:8.25274;stroke-opacity:0.017544"
       d="M 81.858616,22.747423 V 339.20722" />
    <path
       id="path15674"
       sodipodi:nodetypes="cc"
       style="fill:none;stroke:#ffffff;stroke-width:8.34832;stroke-opacity:0.20468"
       d="M 90.156848,18.791989 V 336.17846" />
    <g
       id="g3"
       transform="translate(-569.83591,-4.2615934)">
      <path
         id="path3243"
         style="color:#000000;fill:url(#linearGradient3773-9);stroke:url(#linearGradient3-0);stroke-width:10;stroke-linecap:round;stroke-linejoin:round;stroke-dasharray:none"
         inkscape:r_cy="true"
         inkscape:r_cx="true"
         d="m 824.94165,158.60539 c -2.22874,0.15225 -4.39165,0.49667 -6.57337,0.74681 h -0.15047 l -5.2286,28.53162 c -8.51999,1.94051 -16.53687,5.23425 -23.7497,9.70959 L 765.78602,180.7133 c -6.34062,4.92203 -12.10948,10.66268 -17.17915,16.88011 l 16.28202,23.753 c -4.94367,7.55138 -8.66105,16.17952 -10.75531,25.24493 v 0.14577 l -28.38163,4.48098 c -0.5191,4.24119 -0.74715,8.61873 -0.74715,12.99628 0,3.58291 0.0987,7.1188 0.4481,10.60767 l 28.3821,5.07814 c 2.01856,9.85535 5.85303,19.06183 11.20341,27.18685 l -16.87964,23.15255 c 4.83411,6.00443 10.41536,11.46814 16.43154,16.28296 l 23.90158,-16.42872 c 8.35072,5.32735 17.67475,9.06542 27.78401,10.9039 l 4.48098,28.23069 c 3.18324,0.29152 6.45112,0.30093 9.70959,0.30093 4.60324,0 8.9996,-0.17398 13.44297,-0.74762 l 5.37906,-28.83254 c 9.59675,-2.38391 18.61044,-6.53106 26.43924,-12.0982 l 23.00679,16.72965 c 5.96212,-5.07344 11.42112,-10.9086 16.1325,-17.17634 l -16.72965,-24.2011 c 4.52801,-7.82409 7.66893,-16.45693 9.2582,-25.69162 l 28.2354,-4.48099 c 0.2445,-2.94814 0.29622,-5.80224 0.29622,-8.81621 0,-5.2286 -0.60655,-10.35847 -1.34476,-15.38488 l -28.67738,-5.22861 c -2.24755,-8.29899 -5.93861,-16.04315 -10.60767,-23.00209 l 16.88011,-23.1549 c -5.23331,-6.39846 -11.20012,-12.30979 -17.77819,-17.32774 l -24.34686,16.73012 c -6.99655,-4.13869 -14.52912,-7.3144 -22.70586,-9.11197 l -4.48099,-28.3821 c -4.08132,-0.4796 -8.19085,-0.74681 -12.39913,-0.74681 -1.13788,0 -2.30867,-0.0358 -3.43714,0 -0.55014,0.0174 -1.09086,-0.032 -1.641,0 -0.15046,0.009 -0.30092,-0.0102 -0.44668,0 z m 3.88383,72.59858 c 0.54543,-0.0282 1.08616,0 1.64099,0 17.68415,0 32.11453,14.43508 32.11453,32.11923 0,17.67945 -14.43038,31.96407 -32.11453,31.96407 -17.68415,0 -31.96876,-14.28462 -31.96876,-31.96407 0,-17.12931 13.41005,-31.25877 30.32777,-32.11923 z" />
      <circle
         id="path3283"
         style="color:#000000;opacity:0.64773;fill:none;stroke:#ffffff;stroke-width:4.70199"
         inkscape:r_cx="true"
         inkscape:r_cy="true"
         cx="830.4856"
         cy="263.2525"
         r="36.901321" />
      <path
         id="path3285"
         style="color:#000000;opacity:0.34659;fill:none;stroke:#ffffff;stroke-width:4.70198"
         inkscape:r_cy="true"
         d="m 821.63145,164.25261 -4.19887,27.62413 c -7.98866,1.8192 -22.68235,7.38258 -29.4391,11.57863 l -22.33441,-16.6704 c -5.94283,4.61358 -6.35002,4.92673 -11.10185,10.75437 l 16.14708,23.94813 c -4.63145,7.08118 -10.19954,19.7013 -12.19788,28.7197 l -28.29558,4.76781 c -0.48666,3.97317 -0.2525,12.47905 0.0748,15.74693 l 27.02793,4.87125 c 1.89207,9.2394 8.9709,24.10706 13.98792,31.72427 l -17.09217,22.58361 c 4.5313,5.62357 5.43831,6.14079 11.07833,10.65469 l 22.85163,-16.74375 c 7.8335,4.9935 23.37355,11.06846 32.84804,12.79409 l 3.74748,27.27619 c 2.98576,0.27271 11.23303,1.03443 15.39899,0.49841 l 4.19887,-28.39526 c 8.99489,-2.23815 24.53963,-8.61874 31.87472,-13.83793 l 22.83282,16.49454 c 5.59066,-4.7584 5.64238,-5.4731 10.05754,-11.35058 l -16.91773,-24.04593 c 4.24589,-7.33509 9.73781,-21.68083 11.22833,-30.33718 l 27.69937,-4.59383 c 0.2304,-2.76477 0.24451,-10.46191 -0.44669,-15.178 l -28.22128,-4.86655 c -2.10649,-7.78178 -9.33814,-21.79838 -13.71568,-28.32473 l 17.93805,-22.57985 c -4.90416,-5.99785 -6.72853,-6.8207 -12.89283,-11.52456 l -23.62275,16.91867 c -6.55926,-3.88008 -19.64017,-9.79423 -27.3044,-11.47895 l -4.17066,-27.02792 c -3.82741,-0.44998 -14.85826,-0.25015 -17.03998,0 z"
         sodipodi:nodetypes="ccccccccccccccccccccccccccccccccc"
         inkscape:r_cx="true" />
      <path
         id="path3767"
         style="color:#000000;opacity:0.5;fill:#ffffff;stroke-width:4.70198"
         inkscape:r_cy="true"
         inkscape:r_cx="true"
         sodipodi:nodetypes="cccccccccsccccccccccccccccccccsccccc"
         d="m 765.71079,183.75924 c -6.34015,4.92204 -9.10961,7.87488 -14.17882,14.09231 l 15.99849,23.3444 c -4.94413,7.51846 -10.14876,19.59315 -11.03837,26.93764 l -28.50576,4.90887 c -0.32444,2.64722 -0.81673,8.71277 -0.81673,8.71277 l 0.83131,7.3445 c 2.0115,0.41847 3.9506,0.80404 6.02464,1.02973 l 2.35099,-7.19873 c 1.61749,0.13165 3.19547,0.29152 4.84869,0.29152 1.65133,0 3.37837,-0.15987 4.99585,-0.29152 l 2.20429,7.19873 c 2.07499,-0.22569 4.15984,-0.61126 6.17135,-1.02973 v -7.3445 c 3.22415,-0.75231 6.26304,-1.82437 9.25679,-3.0845 l 4.41046,6.02324 c 1.89019,-0.85576 3.64403,-1.76794 5.43549,-2.79298 l -2.35099,-7.05297 c 2.80708,-1.70211 5.4637,-3.73807 7.93224,-5.87747 l 6.02794,4.41045 c 1.52814,-1.39648 3.01397,-2.87761 4.40576,-4.41045 l -4.40576,-5.87748 c 2.1347,-2.47324 4.0249,-5.12516 5.72701,-7.93224 l 7.05297,2.20053 c 1.02504,-1.79146 2.08768,-3.5453 2.93874,-5.43549 l -6.02324,-4.40576 c 1.26484,-2.99516 2.18643,-6.03264 2.93874,-9.2582 h 7.49496 c 0.41377,-2.01245 0.65358,-4.09543 0.87927,-6.1737 l -7.05297,-2.20053 c 0.13636,-1.61748 0.29622,-3.34781 0.29622,-4.9982 0,-1.6504 -0.15986,-3.23026 -0.29622,-4.84869 l 7.05297,-2.20382 c -0.21159,-1.97436 -0.49371,-3.95906 -0.87927,-5.87747 -5.39787,1.8775 -12.00416,5.42185 -16.78137,8.38551 z" />
      <path
         id="path3770"
         style="color:#000000;opacity:0.5;fill:#ffffff;stroke-width:4.70198"
         inkscape:r_cx="true"
         inkscape:r_cy="true"
         d="m 893.29434,235.10911 c -1.80556,0.85106 -3.51238,1.81496 -5.238,2.79768 l 2.68013,8.15793 c -3.27729,1.98424 -6.37119,4.32583 -9.2535,6.81787 l -6.94013,-5.11105 c -1.78675,1.62689 -3.48887,3.3243 -5.11105,5.11105 l 5.11105,6.94013 c -2.49205,2.88231 -4.82893,5.97622 -6.81787,9.2535 l -2.55788,-0.85106 c -0.22099,3.29139 -1.10966,6.39939 -2.43562,9.2535 l 0.489,0.36205 c -1.47172,3.49357 -2.65662,7.19873 -3.53118,10.96032 h -6.94013 c -0.63947,0.39967 -1.26953,0.86986 -1.94662,1.21781 -0.36675,1.95132 -0.63477,3.84152 -0.85106,5.83986 l 8.27549,2.68013 c -0.15517,1.88549 -0.2398,3.7945 -0.2398,5.72231 0,1.92781 0.0846,3.83682 0.2398,5.72231 l -8.27549,2.68013 c 0.26331,2.41682 0.61126,4.83364 1.09556,7.17992 l 8.64225,-0.12225 c 0.60185,2.58609 1.4247,5.2098 2.31337,7.67364 3.50298,-1.35417 6.93072,-2.96225 10.10456,-4.87126 -1.93252,-5.7176 -3.04218,-11.89131 -3.04218,-18.26249 0,-24.4409 15.47892,-45.31299 37.13154,-53.32517 l -5.11105,-0.85105 c -1.04855,-3.86973 -2.40742,-7.65953 -4.14245,-11.20482 -0.047,-0.10345 -0.0658,-0.25861 -0.11755,-0.36206 l -0.2445,-0.2445 z" />
      <ellipse
         cx="830.13824"
         cy="263.71396"
         fill="url(#radialGradient3970-8)"
         stroke-width="4.34097"
         id="ellipse39"
         style="fill:url(#radialGradient3970-8)"
         rx="70.541061"
         ry="70.544533" />
    </g>
  </g>
  <g
     transform="matrix(.676 0 0 .676 6.42 -4.93)"
     fill="#292929"
     font-family="Ubuntu"
     font-size="78.8px"
     font-weight="bold"
     stroke-width=".492"
     id="g36">
    <text
       x="28.554382"
       y="77.809425"
       filter="url(#filter1)"
       style="font-variant-caps:normal;font-variant-east-asian:normal;font-variant-ligatures:normal;font-variant-numeric:normal;line-height:1.25"
       xml:space="preserve"
       id="text35"><tspan
         x="28.554382"
         y="77.809425"
         fill="#292929"
         font-family="Ubuntu"
         font-size="78.8px"
         font-weight="bold"
         stroke-width=".492"
         style="font-variant-caps:normal;font-variant-east-asian:normal;font-variant-ligatures:normal;font-variant-numeric:normal"
         id="tspan35">9</tspan></text>
    <text
       x="28.554382"
       y="77.809425"
       style="font-variant-caps:normal;font-variant-east-asian:normal;font-variant-ligatures:normal;font-variant-numeric:normal;line-height:1.25"
       xml:space="preserve"
       id="text36"><tspan
         x="28.554382"
         y="77.809425"
         fill="#292929"
         font-family="Ubuntu"
         font-size="78.8px"
         font-weight="bold"
         stroke-width=".492"
         style="font-variant-caps:normal;font-variant-east-asian:normal;font-variant-ligatures:normal;font-variant-numeric:normal"
         id="tspan36">9</tspan></text>
  </g>
</svg>
