<?xml version="1.0" encoding="UTF-8" standalone="no"?>
<svg
   width="100mm"
   height="100mm"
   version="1.1"
   viewBox="0 0 100 100"
   id="svg27"
   sodipodi:docname="script6.svg"
   inkscape:version="1.3.2 (091e20ef0f, 2023-11-25)"
   xmlns:inkscape="http://www.inkscape.org/namespaces/inkscape"
   xmlns:sodipodi="http://sodipodi.sourceforge.net/DTD/sodipodi-0.dtd"
   xmlns:xlink="http://www.w3.org/1999/xlink"
   xmlns="http://www.w3.org/2000/svg"
   xmlns:svg="http://www.w3.org/2000/svg">
  <sodipodi:namedview
     id="namedview27"
     pagecolor="#ffffff"
     bordercolor="#111111"
     borderopacity="1"
     inkscape:showpageshadow="0"
     inkscape:pageopacity="0"
     inkscape:pagecheckerboard="1"
     inkscape:deskcolor="#d1d1d1"
     inkscape:document-units="mm"
     inkscape:zoom="2.1722292"
     inkscape:cx="189.20655"
     inkscape:cy="188.97638"
     inkscape:window-width="1920"
     inkscape:window-height="1018"
     inkscape:window-x="0"
     inkscape:window-y="0"
     inkscape:window-maximized="1"
     inkscape:current-layer="svg27" />
  <defs
     id="defs15">
    <linearGradient
       id="a">
      <stop
         stop-color="#fff"
         offset="0"
         id="stop1" />
      <stop
         stop-color="#fff"
         stop-opacity="0"
         offset="1"
         id="stop2" />
    </linearGradient>
    <linearGradient
       id="linearGradient3289"
       x1="60.4"
       x2="60.4"
       y1="64.1"
       y2="-21"
       gradientTransform="translate(-.39 -3.51)"
       gradientUnits="userSpaceOnUse"
       xlink:href="#linearGradient6674" />
    <linearGradient
       id="linearGradient6674">
      <stop
         stop-color="#bf5e00"
         offset="0"
         id="stop3" />
      <stop
         stop-color="#bf5e00"
         stop-opacity="0"
         offset="1"
         id="stop4" />
    </linearGradient>
    <filter
       id="filter3319"
       x="-0.040449437"
       y="-0.040449437"
       width="1.0808989"
       height="1.0808989">
      <feGaussianBlur
         stdDeviation="1.6179775"
         id="feGaussianBlur4" />
    </filter>
    <linearGradient
       id="linearGradient6410"
       x1="39.7"
       x2="11.5"
       y1="114"
       y2="13"
       gradientTransform="matrix(.964 0 0 .964 -11.7 -11.7)"
       gradientUnits="userSpaceOnUse">
      <stop
         stop-color="#ed7500"
         offset="0"
         id="stop5" />
      <stop
         stop-color="#ff7b07"
         offset="1"
         id="stop6" />
    </linearGradient>
    <linearGradient
       id="linearGradient6680"
       x1="19.1"
       x2="80.1"
       y1="50.6"
       y2="66.9"
       gradientTransform="matrix(.964 0 0 .964 -11.7 -11.7)"
       gradientUnits="userSpaceOnUse"
       xlink:href="#linearGradient6674" />
    <radialGradient
       id="radialGradient9692"
       cx="-64"
       cy="91.8"
       r="50.6"
       gradientTransform="matrix(.964 0 0 .964 11.7 -11.7)"
       gradientUnits="userSpaceOnUse">
      <stop
         stop-color="#ffbf00"
         offset="0"
         id="stop7" />
      <stop
         stop-color="#ff7e00"
         offset="1"
         id="stop8" />
    </radialGradient>
    <linearGradient
       id="linearGradient2816-2"
       x1="59.2"
       x2="59.2"
       y1="-31.7"
       y2="98.2"
       gradientTransform="matrix(.964 0 0 .964 -11.7 -11.7)"
       gradientUnits="userSpaceOnUse"
       xlink:href="#a" />
    <linearGradient
       id="linearGradient6452"
       x1="21.5"
       x2="15.6"
       y1="21.7"
       y2="27.6"
       gradientTransform="translate(-.39 -3.51)"
       gradientUnits="userSpaceOnUse"
       spreadMethod="reflect"
       xlink:href="#a" />
    <filter
       id="filter6458"
       x="-0.076104845"
       y="-0.072623453"
       width="1.1522097"
       height="1.1452469">
      <feGaussianBlur
         stdDeviation=".28444187"
         id="feGaussianBlur8" />
    </filter>
    <linearGradient
       id="linearGradient6464"
       x1="21.5"
       x2="15.5"
       y1="21.7"
       y2="27.7"
       gradientUnits="userSpaceOnUse"
       spreadMethod="reflect"
       xlink:href="#a" />
    <linearGradient
       id="linearGradient6637"
       x1="55.3"
       x2="55.3"
       y1="112"
       y2="74.9"
       gradientTransform="matrix(.964 0 0 .964 -11.7 -11.7)"
       gradientUnits="userSpaceOnUse">
      <stop
         stop-color="#703700"
         offset="0"
         id="stop9" />
      <stop
         stop-color="#bf5e00"
         stop-opacity="0"
         offset="1"
         id="stop10" />
    </linearGradient>
    <linearGradient
       id="linearGradient6470"
       x1="21.5"
       x2="14.4"
       y1="21.7"
       y2="28.9"
       gradientUnits="userSpaceOnUse"
       spreadMethod="reflect"
       xlink:href="#a" />
    <linearGradient
       id="linearGradient6649"
       x1="62"
       x2="62"
       y1="15.9"
       y2="50.7"
       gradientTransform="matrix(.964 0 0 .964 -11.7 -11.7)"
       gradientUnits="userSpaceOnUse">
      <stop
         stop-color="#ffdfbf"
         offset="0"
         id="stop11" />
      <stop
         stop-color="#ffdfbf"
         stop-opacity="0"
         offset="1"
         id="stop12" />
    </linearGradient>
    <linearGradient
       id="linearGradient3231"
       x1="59.5"
       x2="59.5"
       y1="8.9"
       y2="47.2"
       gradientUnits="userSpaceOnUse"
       xlink:href="#a" />
    <linearGradient
       id="linearGradient3233"
       x1="93.1"
       x2="31.6"
       y1="62.6"
       y2="23"
       gradientUnits="userSpaceOnUse"
       xlink:href="#a" />
    <linearGradient
       id="linearGradient3243"
       x1="-61"
       x2="-59.4"
       y1="106"
       y2="45.6"
       gradientUnits="userSpaceOnUse">
      <stop
         stop-color="#ffeb8b"
         offset="0"
         id="stop13" />
      <stop
         stop-color="#fff"
         stop-opacity="0"
         offset="1"
         id="stop14" />
    </linearGradient>
    <filter
       id="filter3281"
       x="-0.014849643"
       y="-0.014849643"
       width="1.0296993"
       height="1.0296993">
      <feGaussianBlur
         stdDeviation=".32872878"
         id="feGaussianBlur14" />
    </filter>
    <filter
       id="filter225"
       x="-0.091699159"
       y="-0.063415739"
       width="1.1833983"
       height="1.1268315"
       color-interpolation-filters="sRGB">
      <feGaussianBlur
         stdDeviation="1.5053946"
         id="feGaussianBlur15" />
    </filter>
    <filter
       inkscape:collect="always"
       style="color-interpolation-filters:sRGB"
       id="filter1"
       x="-0.091330648"
       y="-0.063623598"
       width="1.1826613"
       height="1.1272472">
      <feGaussianBlur
         inkscape:collect="always"
         stdDeviation="1.4873501"
         id="feGaussianBlur1" />
    </filter>
  </defs>
  <rect
     transform="matrix(.964 0 0 .964 -11.3 -8.29)"
     x="15.6"
     y="12.5"
     width="96"
     height="96"
     rx="10.1"
     fill="url(#linearGradient3289)"
     filter="url(#filter3319)"
     id="rect15" />
  <g
     stroke-width=".964"
     id="g18">
    <rect
       x="3.74"
       y="3.74"
       width="92.5"
       height="92.5"
       rx="9.71"
       fill="url(#linearGradient6410)"
       id="rect16" />
    <rect
       x="3.74"
       y="3.74"
       width="92.5"
       height="92.5"
       rx="9.71"
       fill="url(#linearGradient6680)"
       opacity=".0829"
       id="rect17" />
    <rect
       transform="scale(-1,1)"
       x="-91.8"
       y="8.19"
       width="83.6"
       height="83.6"
       rx="6.75"
       fill="url(#radialGradient9692)"
       id="rect18" />
    <path
       d="m14.5 7.87c-3.85 0-6.93 3.08-6.93 6.93v32.6c27.9 7.04 57.4 4.22 84.1-6.05 0.272-0.321 0.506-0.648 0.693-0.964v-25.5c0-3.85-3.08-6.93-6.93-6.93z"
       fill="url(#linearGradient2816-2)"
       id="path18" />
  </g>
  <path
     transform="matrix(.964 0 0 .964 -11.3 -8.29)"
     d="m25.5 12.8c-4.69 0-9.4 3.57-9.4 9.4l4.27-0.0589c0.452-2.13 2.85-4.27 4.53-4.6z"
     fill="url(#linearGradient6452)"
     filter="url(#filter6458)"
     opacity=".888"
     id="path19" />
  <path
     transform="matrix(-.964 0 0 .964 112 -11.7)"
     d="m25.4 16.5c-4.69 0-8.97 3.66-8.97 9.48l4.35-0.315c0.452-2.13 2.85-4.27 4.53-4.6z"
     fill="url(#linearGradient6464)"
     filter="url(#filter6458)"
     opacity=".869"
     id="path20" />
  <path
     d="m3.74 82.7v3.88c0 5.38 4.34 9.72 9.72 9.72h73.1c5.38 0 9.72-4.34 9.72-9.72v-3.88c0 5.38-4.34 9.72-9.72 9.72h-73.1c-5.38 0-9.72-4.34-9.72-9.72z"
     fill="url(#linearGradient6637)"
     opacity=".0829"
     stroke-width=".964"
     id="path21" />
  <path
     transform="matrix(.964 0 0 -.964 -11.7 112)"
     d="m26.2 17c-4.69 0-9.48 3.66-9.48 9.48l4.01-0.825c0.452-2.13 2.85-4.27 4.53-4.6z"
     fill="url(#linearGradient6470)"
     filter="url(#filter6458)"
     opacity=".326"
     id="path22" />
  <path
     transform="matrix(-.964 0 0 -.964 112 112)"
     d="m26.2 17c-4.69 0-9.48 3.66-9.48 9.48l4.01-0.825c0.452-2.13 2.85-4.27 4.53-4.6z"
     fill="url(#linearGradient6470)"
     filter="url(#filter6458)"
     opacity=".176"
     id="path23" />
  <path
     d="m3.74 17.3v-3.88c0-5.38 4.34-9.72 9.72-9.72h73.1c5.38 0 9.72 4.34 9.72 9.72v3.88c0-5.38-4.34-9.72-9.72-9.72h-73.1c-5.38 0-9.72 4.34-9.72 9.72z"
     fill="url(#linearGradient6649)"
     opacity=".389"
     stroke-width=".964"
     id="path24" />
  <g
     transform="matrix(.964 0 0 .964 -11.7 -12.6)"
     id="g26">
    <path
       d="m27.4 21.3c-3.99 0-7.19 3.2-7.19 7.19v1c0-3.99 3.2-7.19 7.19-7.19h73.6c3.99 0 7.19 3.2 7.19 7.19v-1c0-3.99-3.2-7.19-7.19-7.19z"
       fill="url(#linearGradient3231)"
       id="path25" />
    <path
       d="m104 23c1.6 1.32 2.62 3.29 2.62 5.53v26.5c-0.193 0.328-0.437 0.667-0.719 1-27.2 10.5-57.3 13.5-85.9 6.62v0.562c29 7.31 59.6 4.38 87.3-6.28 0.282-0.333 0.525-0.672 0.719-1v-26.5c0-2.85-1.64-5.27-4.03-6.44z"
       fill="url(#linearGradient3233)"
       id="path26" />
  </g>
  <rect
     transform="matrix(-.964 0 0 .964 -11.7 -11.7)"
     x="-107"
     y="20.6"
     width="86.8"
     height="86.8"
     rx="7"
     fill="none"
     filter="url(#filter3281)"
     stroke="url(#linearGradient3243)"
     stroke-linecap="round"
     stroke-linejoin="round"
     id="rect26" />
  <text
     x="28.554382"
     y="77.809425"
     fill="#ffffff"
     font-family="Ubuntu"
     font-size="78.8px"
     font-weight="bold"
     stroke-width="0.492"
     style="line-height:1.25;font-variant-ligatures:normal;font-variant-caps:normal;font-variant-numeric:normal;font-variant-east-asian:normal;fill:#000000;fill-opacity:1;filter:url(#filter1)"
     xml:space="preserve"
     id="text1"><tspan
       x="28.554382"
       y="77.809425"
       fill="#ffffff"
       font-family="Ubuntu"
       font-size="78.8px"
       font-weight="bold"
       stroke-width="0.492"
       style="font-variant-ligatures:normal;font-variant-caps:normal;font-variant-numeric:normal;font-variant-east-asian:normal;fill:#000000;fill-opacity:1"
       id="tspan1">6</tspan></text>
  <text
     x="28.554382"
     y="77.809425"
     fill="#ffffff"
     font-family="Ubuntu"
     font-size="78.8px"
     font-weight="bold"
     stroke-width="0.492"
     style="line-height:1.25;font-variant-ligatures:normal;font-variant-caps:normal;font-variant-numeric:normal;font-variant-east-asian:normal"
     xml:space="preserve"
     id="text27"><tspan
       x="28.554382"
       y="77.809425"
       fill="#ffffff"
       font-family="Ubuntu"
       font-size="78.8px"
       font-weight="bold"
       stroke-width="0.492"
       style="font-variant-ligatures:normal;font-variant-caps:normal;font-variant-numeric:normal;font-variant-east-asian:normal"
       id="tspan27">6</tspan></text>
</svg>
