/* XPM */
static const char *xpm_film19[] = {
"24 24 256 3",
"000 c black",
"001 c #010000",
"002 c #020100",
"003 c #030200",
"004 c #070601",
"005 c #000008",
"006 c #0B0A05",
"007 c #0D0C06",
"008 c #0F0D08",
"009 c #100F0A",
"010 c #11100B",
"011 c #12110B",
"012 c #14130D",
"013 c #15130F",
"014 c #181711",
"015 c #1A1914",
"016 c #1B1A15",
"017 c #1C1B16",
"018 c #201E19",
"019 c #20201A",
"020 c #23221C",
"021 c #23231D",
"022 c #24221C",
"023 c #24231F",
"024 c #25231F",
"025 c #25241E",
"026 c #25251F",
"027 c #282722",
"028 c #2B2925",
"029 c #2E2D27",
"030 c #242837",
"031 c #262837",
"032 c #262A39",
"033 c #322F2B",
"034 c #32312B",
"035 c #3A3934",
"036 c #43423C",
"037 c #4C4B46",
"038 c #4F4E49",
"039 c #404251",
"040 c #484C57",
"041 c #4A4959",
"042 c #4A4C5B",
"043 c #53524E",
"044 c #53534F",
"045 c #585752",
"046 c #4C5161",
"047 c #5E6271",
"048 c #64625E",
"049 c #72726F",
"050 c #7C7C78",
"051 c #767989",
"052 c #7A7E85",
"053 c #807D7D",
"054 c #81817A",
"055 c #82817F",
"056 c #B9954A",
"057 c #C5B434",
"058 c #E69400",
"059 c #EABA56",
"060 c #FFC600",
"061 c #FFCE00",
"062 c #FFD422",
"063 c #FFE601",
"064 c #FFE608",
"065 c #FFF200",
"066 c #FFFB00",
"067 c #F2C743",
"068 c #FFDB48",
"069 c #FFDC61",
"070 c #FFFB6B",
"071 c #878784",
"072 c #82858D",
"073 c #8D8C89",
"074 c #87809C",
"075 c #878B99",
"076 c #8A8D95",
"077 c #949391",
"078 c #9B9B98",
"079 c #9397A6",
"080 c #9495A5",
"081 c #9599A1",
"082 c #969AA9",
"083 c #9B9FAF",
"084 c #9C9FAE",
"085 c #A6A3A2",
"086 c #A1A2AD",
"087 c #A7A8A5",
"088 c #A6A5B4",
"089 c #A5A8B7",
"090 c #B4B3B1",
"091 c #B6B5B0",
"092 c #B5B4B6",
"093 c #BAB9BA",
"094 c #BCBDBD",
"095 c #BDBCBF",
"096 c #AEB2C0",
"097 c #BFBFC1",
"098 c #E6C18B",
"099 c #F6CE8B",
"100 c #FAD08F",
"101 c #C7CCDB",
"102 c #D4D3CE",
"103 c #D4D3D1",
"104 c #DAD8D4",
"105 c #DFE1F2",
"106 c #E7D9CF",
"107 c #E6E6EA",
"108 c #EBE9E3",
"109 c #EAE9EA",
"110 c #E5E9F9",
"111 c #EAEFFF",
"112 c #EDEAFF",
"113 c #ECEFFD",
"114 c #EDEFFE",
"115 c #EDF0FF",
"116 c #EDF2FF",
"117 c #F7F2E5",
"118 c #FFF4E3",
"119 c #F0F1FF",
"120 c #F4F7FF",
"121 c #F5F8FF",
"122 c #F6F9FF",
"123 c #F6FAFF",
"124 c #F9FCFF",
"125 c #FEFFFF",
"126 c Gray100",
"127 c black",
"128 c black",
"129 c black",
"130 c black",
"131 c black",
"132 c black",
"133 c black",
"134 c black",
"135 c black",
"136 c black",
"137 c black",
"138 c black",
"139 c black",
"140 c black",
"141 c black",
"142 c black",
"143 c black",
"144 c black",
"145 c black",
"146 c black",
"147 c black",
"148 c black",
"149 c black",
"150 c black",
"151 c black",
"152 c black",
"153 c black",
"154 c black",
"155 c black",
"156 c black",
"157 c black",
"158 c black",
"159 c black",
"160 c black",
"161 c black",
"162 c black",
"163 c black",
"164 c black",
"165 c black",
"166 c black",
"167 c black",
"168 c black",
"169 c black",
"170 c black",
"171 c black",
"172 c black",
"173 c black",
"174 c black",
"175 c black",
"176 c black",
"177 c black",
"178 c black",
"179 c black",
"180 c black",
"181 c black",
"182 c black",
"183 c black",
"184 c black",
"185 c black",
"186 c black",
"187 c black",
"188 c black",
"189 c black",
"190 c black",
"191 c black",
"192 c black",
"193 c black",
"194 c black",
"195 c black",
"196 c black",
"197 c black",
"198 c black",
"199 c black",
"200 c black",
"201 c black",
"202 c black",
"203 c black",
"204 c black",
"205 c black",
"206 c black",
"207 c black",
"208 c black",
"209 c black",
"210 c black",
"211 c black",
"212 c black",
"213 c black",
"214 c black",
"215 c black",
"216 c black",
"217 c black",
"218 c black",
"219 c black",
"220 c black",
"221 c black",
"222 c black",
"223 c black",
"224 c black",
"225 c black",
"226 c black",
"227 c black",
"228 c black",
"229 c black",
"230 c black",
"231 c black",
"232 c black",
"233 c black",
"234 c black",
"235 c black",
"236 c black",
"237 c black",
"238 c black",
"239 c black",
"240 c black",
"241 c black",
"242 c black",
"243 c black",
"244 c black",
"245 c black",
"246 c black",
"247 c black",
"248 c black",
"249 c black",
"250 c black",
"251 c black",
"252 c black",
"253 c black",
"254 c black",
"255 c black",
"000000000000000000000000000000000000000000000000000000000000000000000000",
"000000126126000000000000126126000000000000126126000000000000126126000000",
"000000126126000000000000126126000000000000126126000000000000126126000000",
"000000126126000000000000126126000000000000126126000000000000126126000000",
"000000000000000000000000000000000000000000000000000000000000000000000000",
"078017015022090126126126126126000000000000126126126126126126086052076072",
"126108037025071126126126126126000000000000126126126126126088047079075032",
"018038021012044126126126126126000000000000126126126126119030089121082039",
"021019049109126126126126126126000000000000126126126126080000096083040081",
"050125126126126126126126126126000000000000126126126126042000031101057067",
"126126126126126126126126126126000000000000126126126110005000084126063058",
"055053085073103126126126126126000000000000126126126046000051126126069056",
"054102104029036077126126126126000000000000126126122074041114126126117107",
"048091043034045087126126126126000000000000126126126126112126126126126126",
"035033027023028092126126126126000000000000126126126126126120123124124123",
"026020024016010094126126126126000000000000126126126126126120111116115113",
"012014013008003097126126126126000000000000126126126126126118100099106105",
"007006009002000095126126126126000000000000126126126126126060064070068098",
"011001004000000093126126126126000000000000126126126126126062065066061059",
"000000000000000000000000000000000000000000000000000000000000000000000000",
"000000126126000000000000126126000000000000126126000000000000126126000000",
"000000126126000000000000126126000000000000126126000000000000126126000000",
"000000126126000000000000126126000000000000126126000000000000126126000000",
"000000000000000000000000000000000000000000000000000000000000000000000000"
};
