/* XPM */
static const char *xpm_film7[] = {
"24 24 256 3",
"000 c black",
"001 c transparent",
"002 c #030200",
"003 c #070801",
"004 c #0D0C06",
"005 c #0E0D07",
"006 c #0F0E08",
"007 c #070A18",
"008 c #13120C",
"009 c #14120D",
"010 c #151410",
"011 c #161710",
"012 c #181711",
"013 c #191812",
"014 c #1B1A15",
"015 c #1D1C16",
"016 c #1E1D17",
"017 c #1F1E19",
"018 c #201F1A",
"019 c #23231C",
"020 c #24231D",
"021 c #2A2925",
"022 c #2E2D27",
"023 c #202432",
"024 c #202434",
"025 c #2A2E3B",
"026 c #2E323F",
"027 c #33312C",
"028 c #32322E",
"029 c #37332F",
"030 c #383731",
"031 c #3C3C35",
"032 c #2E3240",
"033 c #313544",
"034 c #3C3F4E",
"035 c #3E414F",
"036 c #483F3C",
"037 c #474640",
"038 c #4D4C48",
"039 c #555450",
"040 c #575650",
"041 c #50535B",
"042 c #5D5353",
"043 c #5A5954",
"044 c #5A5E66",
"045 c #5B5F67",
"046 c #5A5E6B",
"047 c #625E5D",
"048 c #63625D",
"049 c #676660",
"050 c #6B6A64",
"051 c #6E6E6C",
"052 c #71706C",
"053 c #757573",
"054 c #777776",
"055 c #757987",
"056 c #FFA500",
"057 c #FDCA15",
"058 c #FFD900",
"059 c #FFE100",
"060 c #FFF600",
"061 c #FFFE00",
"062 c #FFF237",
"063 c #FFF63A",
"064 c #EEC143",
"065 c #FFE17A",
"066 c #818292",
"067 c #828695",
"068 c #878B9A",
"069 c #969593",
"070 c #9FA2B0",
"071 c #A2A39D",
"072 c #A9A9A5",
"073 c #AAA9A7",
"074 c #ABAAA5",
"075 c #A9ADBB",
"076 c #B5AFB3",
"077 c Gray71",
"078 c #BBBAB9",
"079 c #BCBBBB",
"080 c #B0B4C2",
"081 c #B3B6C4",
"082 c #B6BACA",
"083 c #B9BCCB",
"084 c #BDBFCA",
"085 c #ECD09C",
"086 c #F6CC82",
"087 c #FBD391",
"088 c #FDD39D",
"089 c #C3C3C3",
"090 c Gray78",
"091 c Gray81",
"092 c #C0C4D2",
"093 c #C3C5D5",
"094 c #C3C8D7",
"095 c #C5C8D6",
"096 c #CDCCD5",
"097 c #CCCFD7",
"098 c #D8D5D0",
"099 c #DADAD8",
"100 c #D7D8E3",
"101 c #D7DBE9",
"102 c #D9DCEE",
"103 c #DFE5F2",
"104 c #E2E2DE",
"105 c #E4E4E3",
"106 c #E7E7E8",
"107 c #EEEDEB",
"108 c #E0E4F3",
"109 c #E1E5F2",
"110 c #E2E6F4",
"111 c #E7EBF8",
"112 c #E9EDFC",
"113 c #ECEFFD",
"114 c #F0F5FF",
"115 c #F2F5FF",
"116 c #F3F6FF",
"117 c #F5F8FF",
"118 c #F8F7F3",
"119 c #FFFFF4",
"120 c #FBFFFF",
"121 c #FCFFFF",
"122 c #FDFFFF",
"123 c Gray100",
"124 c black",
"125 c black",
"126 c black",
"127 c black",
"128 c black",
"129 c black",
"130 c black",
"131 c black",
"132 c black",
"133 c black",
"134 c black",
"135 c black",
"136 c black",
"137 c black",
"138 c black",
"139 c black",
"140 c black",
"141 c black",
"142 c black",
"143 c black",
"144 c black",
"145 c black",
"146 c black",
"147 c black",
"148 c black",
"149 c black",
"150 c black",
"151 c black",
"152 c black",
"153 c black",
"154 c black",
"155 c black",
"156 c black",
"157 c black",
"158 c black",
"159 c black",
"160 c black",
"161 c black",
"162 c black",
"163 c black",
"164 c black",
"165 c black",
"166 c black",
"167 c black",
"168 c black",
"169 c black",
"170 c black",
"171 c black",
"172 c black",
"173 c black",
"174 c black",
"175 c black",
"176 c black",
"177 c black",
"178 c black",
"179 c black",
"180 c black",
"181 c black",
"182 c black",
"183 c black",
"184 c black",
"185 c black",
"186 c black",
"187 c black",
"188 c black",
"189 c black",
"190 c black",
"191 c black",
"192 c black",
"193 c black",
"194 c black",
"195 c black",
"196 c black",
"197 c black",
"198 c black",
"199 c black",
"200 c black",
"201 c black",
"202 c black",
"203 c black",
"204 c black",
"205 c black",
"206 c black",
"207 c black",
"208 c black",
"209 c black",
"210 c black",
"211 c black",
"212 c black",
"213 c black",
"214 c black",
"215 c black",
"216 c black",
"217 c black",
"218 c black",
"219 c black",
"220 c black",
"221 c black",
"222 c black",
"223 c black",
"224 c black",
"225 c black",
"226 c black",
"227 c black",
"228 c black",
"229 c black",
"230 c black",
"231 c black",
"232 c black",
"233 c black",
"234 c black",
"235 c black",
"236 c black",
"237 c black",
"238 c black",
"239 c black",
"240 c black",
"241 c black",
"242 c black",
"243 c black",
"244 c black",
"245 c black",
"246 c black",
"247 c black",
"248 c black",
"249 c black",
"250 c black",
"251 c black",
"252 c black",
"253 c black",
"254 c black",
"255 c black",
"000000000000000000000000000000000000000000000000000000000000000000000000",
"000000123123000000000000123123000000000000123123000000000000123123000000",
"000000123123000000000000123123000000000000123123000000000000123123000000",
"000000123123000000000000123123000000000000123123000000000000123123000000",
"000000000000000000000000000000000000000000000000000000000000000000000000",
"045041044097123123123123123123000000000000123123123123123123123123123123",
"033023024025108123123123123123000000000000123123123123123123123123099039",
"067026001001034123123123123123000000000000123123123123123123123079071030",
"083055035000000093123123123123000000000000123123123123123077021037074038",
"084075007000000046123123123123000000000000123123123123069106107018015013",
"076115092000000000082123123123000000000000123123123123105010017005053123",
"123123120081000000068123123123000000000000123123123123091028049052054073",
"123121116112032000080123123123000000000000123123123123090072104040098118",
"122117113110070066123123123123000000000000123123123123123047011027050048",
"115112109101095114123123123123000000000000123123123123123042014019022031",
"111103100096094123123123123123000000000000123123123123123036009012016020",
"102085087086088123123123123123000000000000123123123123123029003006008011",
"064062063058056119123123123123000000000000123123123123123078043004002004",
"057060061059065123123123123123000000000000123123123123123123123123089051",
"000000000000000000000000000000000000000000000000000000000000000000000000",
"000000123123000000000000123123000000000000123123000000000000123123000000",
"000000123123000000000000123123000000000000123123000000000000123123000000",
"000000123123000000000000123123000000000000123123000000000000123123000000",
"000000000000000000000000000000000000000000000000000000000000000000000000"
};
