/* XPM */
static const char *xpm_film5[] = {
"24 24 256 3",
"000 c black",
"001 c transparent",
"002 c #070A18",
"003 c #151410",
"004 c #202432",
"005 c #202434",
"006 c #262837",
"007 c #262A39",
"008 c #2A2E3B",
"009 c #2E323F",
"010 c #32322E",
"011 c #37332F",
"012 c #2E3240",
"013 c #313544",
"014 c #3C3F4E",
"015 c #3E414F",
"016 c #483F3C",
"017 c #404251",
"018 c #484C57",
"019 c #50535B",
"020 c #5D5353",
"021 c #5A5E66",
"022 c #5B5F67",
"023 c #5A5E6B",
"024 c #5E6271",
"025 c #625E5D",
"026 c #757987",
"027 c #7A7E85",
"028 c #B9954A",
"029 c #C5B434",
"030 c #E69400",
"031 c #FFA500",
"032 c #EABA56",
"033 c #FFCE00",
"034 c #FDCA15",
"035 c #FFD900",
"036 c #FFE100",
"037 c #FFE601",
"038 c #FFE608",
"039 c #FFF200",
"040 c #FFF600",
"041 c #FFFB00",
"042 c #FFFE00",
"043 c #FFF237",
"044 c #FFF63A",
"045 c #EEC143",
"046 c #F2C743",
"047 c #FFDB48",
"048 c #FFDC61",
"049 c #FFE17A",
"050 c #FFFB6B",
"051 c #82858D",
"052 c #818292",
"053 c #828695",
"054 c #878B99",
"055 c #878B9A",
"056 c #8A8D95",
"057 c #969593",
"058 c #9397A6",
"059 c #9599A1",
"060 c #969AA9",
"061 c #9B9FAF",
"062 c #9C9FAE",
"063 c #9FA2B0",
"064 c #A1A2AD",
"065 c #A9A9A5",
"066 c #A5A8B7",
"067 c #A9ADBB",
"068 c #B5AFB3",
"069 c Gray71",
"070 c #BBBAB9",
"071 c #AEB2C0",
"072 c #B0B4C2",
"073 c #B3B6C4",
"074 c #B6BACA",
"075 c #B9BCCB",
"076 c #BDBFCA",
"077 c #E6C18B",
"078 c #ECD09C",
"079 c #F6CC82",
"080 c #F6CE8B",
"081 c #FAD08F",
"082 c #FBD391",
"083 c #FDD39D",
"084 c Gray78",
"085 c Gray81",
"086 c #C0C4D2",
"087 c #C3C5D5",
"088 c #C3C8D7",
"089 c #C5C8D6",
"090 c #C7CCDB",
"091 c #CDCCD5",
"092 c #CCCFD7",
"093 c #D7D8E3",
"094 c #D7DBE9",
"095 c #D9DCEE",
"096 c #DFE1F2",
"097 c #DFE5F2",
"098 c #E7D9CF",
"099 c #E4E4E3",
"100 c #E7E7E8",
"101 c #E6E6EA",
"102 c #E0E4F3",
"103 c #E1E5F2",
"104 c #E2E6F4",
"105 c #E7EBF8",
"106 c #E9EDFC",
"107 c #EAEFFF",
"108 c #ECEFFD",
"109 c #EDF0FF",
"110 c #EDF2FF",
"111 c #F7F2E5",
"112 c #F0F5FF",
"113 c #F2F5FF",
"114 c #F3F6FF",
"115 c #F5F8FF",
"116 c #F6FAFF",
"117 c #FFFFF4",
"118 c #F9FCFF",
"119 c #FBFFFF",
"120 c #FCFFFF",
"121 c #FDFFFF",
"122 c Gray100",
"123 c black",
"124 c black",
"125 c black",
"126 c black",
"127 c black",
"128 c black",
"129 c black",
"130 c black",
"131 c black",
"132 c black",
"133 c black",
"134 c black",
"135 c black",
"136 c black",
"137 c black",
"138 c black",
"139 c black",
"140 c black",
"141 c black",
"142 c black",
"143 c black",
"144 c black",
"145 c black",
"146 c black",
"147 c black",
"148 c black",
"149 c black",
"150 c black",
"151 c black",
"152 c black",
"153 c black",
"154 c black",
"155 c black",
"156 c black",
"157 c black",
"158 c black",
"159 c black",
"160 c black",
"161 c black",
"162 c black",
"163 c black",
"164 c black",
"165 c black",
"166 c black",
"167 c black",
"168 c black",
"169 c black",
"170 c black",
"171 c black",
"172 c black",
"173 c black",
"174 c black",
"175 c black",
"176 c black",
"177 c black",
"178 c black",
"179 c black",
"180 c black",
"181 c black",
"182 c black",
"183 c black",
"184 c black",
"185 c black",
"186 c black",
"187 c black",
"188 c black",
"189 c black",
"190 c black",
"191 c black",
"192 c black",
"193 c black",
"194 c black",
"195 c black",
"196 c black",
"197 c black",
"198 c black",
"199 c black",
"200 c black",
"201 c black",
"202 c black",
"203 c black",
"204 c black",
"205 c black",
"206 c black",
"207 c black",
"208 c black",
"209 c black",
"210 c black",
"211 c black",
"212 c black",
"213 c black",
"214 c black",
"215 c black",
"216 c black",
"217 c black",
"218 c black",
"219 c black",
"220 c black",
"221 c black",
"222 c black",
"223 c black",
"224 c black",
"225 c black",
"226 c black",
"227 c black",
"228 c black",
"229 c black",
"230 c black",
"231 c black",
"232 c black",
"233 c black",
"234 c black",
"235 c black",
"236 c black",
"237 c black",
"238 c black",
"239 c black",
"240 c black",
"241 c black",
"242 c black",
"243 c black",
"244 c black",
"245 c black",
"246 c black",
"247 c black",
"248 c black",
"249 c black",
"250 c black",
"251 c black",
"252 c black",
"253 c black",
"254 c black",
"255 c black",
"000000000000000000000000000000000000000000000000000000000000000000000000",
"122122000000000000122122000000000000122122000000000000122122000000000000",
"122122000000000000122122000000000000122122000000000000122122000000000000",
"122122000000000000122122000000000000122122000000000000122122000000000000",
"000000000000000000000000000000000000000000000000000000000000000000000000",
"064027056051022019021092122122122122122122000000000000122122122122122122",
"024058054007013004005008102122122122122122000000000000122122122122122122",
"066115060017053009001001014122122122122122000000000000122122122122122122",
"071061018059075026015000000087122122122122000000000000122122122122122069",
"006090029046076067002000000023122122122122000000000000122122122122057100",
"062122037030068113086000000000074122122122000000000000122122122122099003",
"122122048028122122119073000000055122122122000000000000122122122122085010",
"122122111101122120114106012000072122122122000000000000122122122122084065",
"122122122122121115108104063052122122122122000000000000122122122122122025",
"116118118116113106103094089112122122122122000000000000122122122122122020",
"107110109108105097093091088122122122122122000000000000122122122122122016",
"081080098096095078082079083122122122122122000000000000122122122122122011",
"038050047077045043044035031117122122122122000000000000122122122122122070",
"039041033032034040042036049122122122122122000000000000122122122122122122",
"000000000000000000000000000000000000000000000000000000000000000000000000",
"122122000000000000122122000000000000122122000000000000122122000000000000",
"122122000000000000122122000000000000122122000000000000122122000000000000",
"122122000000000000122122000000000000122122000000000000122122000000000000",
"000000000000000000000000000000000000000000000000000000000000000000000000"
};
