/* XPM */
static const char *xpm_film21[] = {
"24 24 256 3",
"000 c black",
"001 c transparent",
"002 c #030200",
"003 c #000008",
"004 c #070A18",
"005 c #11100B",
"006 c #2B2925",
"007 c #202432",
"008 c #202434",
"009 c #242837",
"010 c #262837",
"011 c #262A39",
"012 c #2A2E3B",
"013 c #2E323F",
"014 c #313544",
"015 c #3E414F",
"016 c #43423C",
"017 c #404251",
"018 c #484C57",
"019 c #4A4959",
"020 c #4A4C5B",
"021 c #53534F",
"022 c #50535B",
"023 c #585752",
"024 c #4C5161",
"025 c #5A5E66",
"026 c #5B5F67",
"027 c #5E6271",
"028 c #757987",
"029 c #767989",
"030 c #7A7E85",
"031 c #B9954A",
"032 c #C5B434",
"033 c #E69400",
"034 c #EABA56",
"035 c #FFC600",
"036 c #FFCE00",
"037 c #FDCA15",
"038 c #FFD900",
"039 c #FFD422",
"040 c #FFE100",
"041 c #FFE601",
"042 c #FFE608",
"043 c #FFF200",
"044 c #FFF600",
"045 c #FFFB00",
"046 c #FFFE00",
"047 c #FFF237",
"048 c #FFF63A",
"049 c #EEC143",
"050 c #F2C743",
"051 c #FFDB48",
"052 c #FFDC61",
"053 c #FFFB6B",
"054 c #878784",
"055 c #82858D",
"056 c #828695",
"057 c #87809C",
"058 c #878B99",
"059 c #8A8D95",
"060 c #949391",
"061 c #9397A6",
"062 c #9495A5",
"063 c #9599A1",
"064 c #969AA9",
"065 c #9B9FAF",
"066 c #9C9FAE",
"067 c #A1A2AD",
"068 c #A7A8A5",
"069 c #A6A5B4",
"070 c #A5A8B7",
"071 c #A9ADBB",
"072 c #B5AFB3",
"073 c #B4B3B1",
"074 c #B5B4B6",
"075 c #BAB9BA",
"076 c #BCBDBD",
"077 c #BDBCBF",
"078 c #AEB2C0",
"079 c #B3B6C4",
"080 c #BFBFC1",
"081 c #B9BCCB",
"082 c #BDBFCA",
"083 c #E6C18B",
"084 c #ECD09C",
"085 c #F6CC82",
"086 c #F6CE8B",
"087 c #FAD08F",
"088 c #FBD391",
"089 c #C0C4D2",
"090 c #C7CCDB",
"091 c #CDCCD5",
"092 c #CCCFD7",
"093 c #D4D3D1",
"094 c #D7D8E3",
"095 c #D7DBE9",
"096 c #D9DCEE",
"097 c #DFE1F2",
"098 c #DFE5F2",
"099 c #E7D9CF",
"100 c #E6E6EA",
"101 c #E1E5F2",
"102 c #E2E6F4",
"103 c #E5E9F9",
"104 c #E7EBF8",
"105 c #E9EDFC",
"106 c #EAEFFF",
"107 c #EDEAFF",
"108 c #ECEFFD",
"109 c #EDEFFE",
"110 c #EDF0FF",
"111 c #EDF2FF",
"112 c #F7F2E5",
"113 c #FFF4E3",
"114 c #F0F1FF",
"115 c #F2F5FF",
"116 c #F3F6FF",
"117 c #F4F7FF",
"118 c #F5F8FF",
"119 c #F6F9FF",
"120 c #F6FAFF",
"121 c #F9FCFF",
"122 c #FBFFFF",
"123 c #FCFFFF",
"124 c #FDFFFF",
"125 c Gray100",
"126 c black",
"127 c black",
"128 c black",
"129 c black",
"130 c black",
"131 c black",
"132 c black",
"133 c black",
"134 c black",
"135 c black",
"136 c black",
"137 c black",
"138 c black",
"139 c black",
"140 c black",
"141 c black",
"142 c black",
"143 c black",
"144 c black",
"145 c black",
"146 c black",
"147 c black",
"148 c black",
"149 c black",
"150 c black",
"151 c black",
"152 c black",
"153 c black",
"154 c black",
"155 c black",
"156 c black",
"157 c black",
"158 c black",
"159 c black",
"160 c black",
"161 c black",
"162 c black",
"163 c black",
"164 c black",
"165 c black",
"166 c black",
"167 c black",
"168 c black",
"169 c black",
"170 c black",
"171 c black",
"172 c black",
"173 c black",
"174 c black",
"175 c black",
"176 c black",
"177 c black",
"178 c black",
"179 c black",
"180 c black",
"181 c black",
"182 c black",
"183 c black",
"184 c black",
"185 c black",
"186 c black",
"187 c black",
"188 c black",
"189 c black",
"190 c black",
"191 c black",
"192 c black",
"193 c black",
"194 c black",
"195 c black",
"196 c black",
"197 c black",
"198 c black",
"199 c black",
"200 c black",
"201 c black",
"202 c black",
"203 c black",
"204 c black",
"205 c black",
"206 c black",
"207 c black",
"208 c black",
"209 c black",
"210 c black",
"211 c black",
"212 c black",
"213 c black",
"214 c black",
"215 c black",
"216 c black",
"217 c black",
"218 c black",
"219 c black",
"220 c black",
"221 c black",
"222 c black",
"223 c black",
"224 c black",
"225 c black",
"226 c black",
"227 c black",
"228 c black",
"229 c black",
"230 c black",
"231 c black",
"232 c black",
"233 c black",
"234 c black",
"235 c black",
"236 c black",
"237 c black",
"238 c black",
"239 c black",
"240 c black",
"241 c black",
"242 c black",
"243 c black",
"244 c black",
"245 c black",
"246 c black",
"247 c black",
"248 c black",
"249 c black",
"250 c black",
"251 c black",
"252 c black",
"253 c black",
"254 c black",
"255 c black",
"000000000000000000000000000000000000000000000000000000000000000000000000",
"000000000000125125000000000000125125000000000000125125000000000000125125",
"000000000000125125000000000000125125000000000000125125000000000000125125",
"000000000000125125000000000000125125000000000000125125000000000000125125",
"000000000000000000000000000000000000000000000000000000000000000000000000",
"073125125125125125000000000000125125125125125125067030059055026022025092",
"054125125125125125000000000000125125125125125069027061058011014007008012",
"021125125125125125000000000000125125125125114009070118064017056013001001",
"125125125125125125000000000000125125125125062000078065018063081028015000",
"125125125125125125000000000000125125125125020000010090032050082071004000",
"125125125125125125000000000000125125125103003000066125041033072115089000",
"093125125125125125000000000000125125125024000029125125052031125125122079",
"016060125125125125000000000000125125119057019109125125112100125123116105",
"023068125125125125000000000000125125125125107125125125125125124118108102",
"006074125125125125000000000000125125125125125117120121121120115105101095",
"005076125125125125000000000000125125125125125117106111110108104098094091",
"002080125125125125000000000000125125125125125113087086099097096084088085",
"000077125125125125000000000000125125125125125035042053051083049047048038",
"000075125125125125000000000000125125125125125039043045036034037044046040",
"000000000000000000000000000000000000000000000000000000000000000000000000",
"000000000000125125000000000000125125000000000000125125000000000000125125",
"000000000000125125000000000000125125000000000000125125000000000000125125",
"000000000000125125000000000000125125000000000000125125000000000000125125",
"000000000000000000000000000000000000000000000000000000000000000000000000"
};
