/* XPM */
static const char *xpm_film1[] = {
"24 24 256 3",
"000 c black",
"001 c transparent",
"002 c #000008",
"003 c #070A18",
"004 c #202432",
"005 c #202434",
"006 c #242837",
"007 c #262837",
"008 c #262A39",
"009 c #2A2E3B",
"010 c #2E323F",
"011 c #2E3240",
"012 c #313544",
"013 c #3C3F4E",
"014 c #3E414F",
"015 c #404251",
"016 c #484C57",
"017 c #4A4959",
"018 c #4A4C5B",
"019 c #50535B",
"020 c #4C5161",
"021 c #5A5E66",
"022 c #5B5F67",
"023 c #5A5E6B",
"024 c #5E6271",
"025 c #757987",
"026 c #767989",
"027 c #7A7E85",
"028 c #B9954A",
"029 c #C5B434",
"030 c #E69400",
"031 c #FFA500",
"032 c #EABA56",
"033 c #FFC600",
"034 c #FFCE00",
"035 c #FDCA15",
"036 c #FFD900",
"037 c #FFD422",
"038 c #FFE100",
"039 c #FFE601",
"040 c #FFE608",
"041 c #FFF200",
"042 c #FFF600",
"043 c #FFFB00",
"044 c #FFFE00",
"045 c #FFF237",
"046 c #FFF63A",
"047 c #EEC143",
"048 c #F2C743",
"049 c #FFDB48",
"050 c #FFDC61",
"051 c #FFE17A",
"052 c #FFFB6B",
"053 c #82858D",
"054 c #818292",
"055 c #828695",
"056 c #87809C",
"057 c #878B99",
"058 c #878B9A",
"059 c #8A8D95",
"060 c #9397A6",
"061 c #9495A5",
"062 c #9599A1",
"063 c #969AA9",
"064 c #9B9FAF",
"065 c #9C9FAE",
"066 c #9FA2B0",
"067 c #A1A2AD",
"068 c #A6A5B4",
"069 c #A5A8B7",
"070 c #A9ADBB",
"071 c #B5AFB3",
"072 c #AEB2C0",
"073 c #B0B4C2",
"074 c #B3B6C4",
"075 c #B6BACA",
"076 c #B9BCCB",
"077 c #BDBFCA",
"078 c #E6C18B",
"079 c #ECD09C",
"080 c #F6CC82",
"081 c #F6CE8B",
"082 c #FAD08F",
"083 c #FBD391",
"084 c #FDD39D",
"085 c #C0C4D2",
"086 c #C3C5D5",
"087 c #C3C8D7",
"088 c #C5C8D6",
"089 c #C7CCDB",
"090 c #CDCCD5",
"091 c #CCCFD7",
"092 c #D7D8E3",
"093 c #D7DBE9",
"094 c #D9DCEE",
"095 c #DFE1F2",
"096 c #DFE5F2",
"097 c #E7D9CF",
"098 c #E6E6EA",
"099 c #E0E4F3",
"100 c #E1E5F2",
"101 c #E2E6F4",
"102 c #E5E9F9",
"103 c #E7EBF8",
"104 c #E9EDFC",
"105 c #EAEFFF",
"106 c #EDEAFF",
"107 c #ECEFFD",
"108 c #EDEFFE",
"109 c #EDF0FF",
"110 c #EDF2FF",
"111 c #F7F2E5",
"112 c #FFF4E3",
"113 c #F0F1FF",
"114 c #F0F5FF",
"115 c #F2F5FF",
"116 c #F3F6FF",
"117 c #F4F7FF",
"118 c #F5F8FF",
"119 c #F6F9FF",
"120 c #F6FAFF",
"121 c #FFFFF4",
"122 c #F9FCFF",
"123 c #FBFFFF",
"124 c #FCFFFF",
"125 c #FDFFFF",
"126 c Gray100",
"127 c black",
"128 c black",
"129 c black",
"130 c black",
"131 c black",
"132 c black",
"133 c black",
"134 c black",
"135 c black",
"136 c black",
"137 c black",
"138 c black",
"139 c black",
"140 c black",
"141 c black",
"142 c black",
"143 c black",
"144 c black",
"145 c black",
"146 c black",
"147 c black",
"148 c black",
"149 c black",
"150 c black",
"151 c black",
"152 c black",
"153 c black",
"154 c black",
"155 c black",
"156 c black",
"157 c black",
"158 c black",
"159 c black",
"160 c black",
"161 c black",
"162 c black",
"163 c black",
"164 c black",
"165 c black",
"166 c black",
"167 c black",
"168 c black",
"169 c black",
"170 c black",
"171 c black",
"172 c black",
"173 c black",
"174 c black",
"175 c black",
"176 c black",
"177 c black",
"178 c black",
"179 c black",
"180 c black",
"181 c black",
"182 c black",
"183 c black",
"184 c black",
"185 c black",
"186 c black",
"187 c black",
"188 c black",
"189 c black",
"190 c black",
"191 c black",
"192 c black",
"193 c black",
"194 c black",
"195 c black",
"196 c black",
"197 c black",
"198 c black",
"199 c black",
"200 c black",
"201 c black",
"202 c black",
"203 c black",
"204 c black",
"205 c black",
"206 c black",
"207 c black",
"208 c black",
"209 c black",
"210 c black",
"211 c black",
"212 c black",
"213 c black",
"214 c black",
"215 c black",
"216 c black",
"217 c black",
"218 c black",
"219 c black",
"220 c black",
"221 c black",
"222 c black",
"223 c black",
"224 c black",
"225 c black",
"226 c black",
"227 c black",
"228 c black",
"229 c black",
"230 c black",
"231 c black",
"232 c black",
"233 c black",
"234 c black",
"235 c black",
"236 c black",
"237 c black",
"238 c black",
"239 c black",
"240 c black",
"241 c black",
"242 c black",
"243 c black",
"244 c black",
"245 c black",
"246 c black",
"247 c black",
"248 c black",
"249 c black",
"250 c black",
"251 c black",
"252 c black",
"253 c black",
"254 c black",
"255 c black",
"000000000000000000000000000000000000000000000000000000000000000000000000",
"000000126126000000000000126126000000000000126126000000000000126126000000",
"000000126126000000000000126126000000000000126126000000000000126126000000",
"000000126126000000000000126126000000000000126126000000000000126126000000",
"000000000000000000000000000000000000000000000000000000000000000000000000",
"000000126126126126126126067027059053022019021091126126126126126126000000",
"000000126126126126126068024060057008012004005009099126126126126126000000",
"000000126126126126113006069118063015055010001001013126126126126126000000",
"000000126126126126061000072064016062076025014000000086126126126126000000",
"000000126126126126018000007089029048077070003000000023126126126126000000",
"000000126126126102002000065126039030071115085000000000075126126126000000",
"000000126126126020000026126126050028126126123074000000058126126126000000",
"000000126126119056017108126126111098126124116104011000073126126126000000",
"000000126126126126106126126126126126125118107101066054126126126126000000",
"000000126126126126126117120122122120115104100093088114126126126126000000",
"000000126126126126126117105110109107103096092090087126126126126126000000",
"000000126126126126126112082081097095094079083080084126126126126126000000",
"000000126126126126126033040052049078047045046036031121126126126126000000",
"000000126126126126126037041043034032035042044038051126126126126126000000",
"000000000000000000000000000000000000000000000000000000000000000000000000",
"000000126126000000000000126126000000000000126126000000000000126126000000",
"000000126126000000000000126126000000000000126126000000000000126126000000",
"000000126126000000000000126126000000000000126126000000000000126126000000",
"000000000000000000000000000000000000000000000000000000000000000000000000"
};
