/* XPM */
static const char *xpm_film9[] = {
"24 24 256 3",
"000 c black",
"001 c #010000",
"002 c #020100",
"003 c #030200",
"004 c #070601",
"005 c #070801",
"006 c #0B0A05",
"007 c #0D0C06",
"008 c #0E0D07",
"009 c #0F0D08",
"010 c #0F0E08",
"011 c #100F0A",
"012 c #12110B",
"013 c #13120C",
"014 c #14120D",
"015 c #14130D",
"016 c #15130F",
"017 c #151410",
"018 c #161710",
"019 c #181711",
"020 c #191812",
"021 c #1A1914",
"022 c #1B1A15",
"023 c #1C1B16",
"024 c #1D1C16",
"025 c #1E1D17",
"026 c #1F1E19",
"027 c #201E19",
"028 c #201F1A",
"029 c #20201A",
"030 c #23221C",
"031 c #23231C",
"032 c #23231D",
"033 c #24221C",
"034 c #24231D",
"035 c #24231F",
"036 c #25231F",
"037 c #25241E",
"038 c #25251F",
"039 c #282722",
"040 c #2A2925",
"041 c #2E2D27",
"042 c #322F2B",
"043 c #32312B",
"044 c #33312C",
"045 c #32322E",
"046 c #37332F",
"047 c #383731",
"048 c #3A3934",
"049 c #3C3C35",
"050 c #2E3240",
"051 c #3C3F4E",
"052 c #483F3C",
"053 c #474640",
"054 c #4C4B46",
"055 c #4D4C48",
"056 c #4F4E49",
"057 c #53524E",
"058 c #555450",
"059 c #575650",
"060 c #5D5353",
"061 c #5A5954",
"062 c #5A5E6B",
"063 c #625E5D",
"064 c #63625D",
"065 c #64625E",
"066 c #676660",
"067 c #6B6A64",
"068 c #6E6E6C",
"069 c #71706C",
"070 c #72726F",
"071 c #757573",
"072 c #777776",
"073 c #7C7C78",
"074 c #807D7D",
"075 c #81817A",
"076 c #82817F",
"077 c #FFA500",
"078 c #FFE17A",
"079 c #8D8C89",
"080 c #818292",
"081 c #878B9A",
"082 c #969593",
"083 c #9B9B98",
"084 c #9FA2B0",
"085 c #A2A39D",
"086 c #A6A3A2",
"087 c #A9A9A5",
"088 c #AAA9A7",
"089 c #ABAAA5",
"090 c #B6B5B0",
"091 c Gray71",
"092 c #BBBAB9",
"093 c #BCBBBB",
"094 c #B0B4C2",
"095 c #B6BACA",
"096 c #FDD39D",
"097 c #C3C3C3",
"098 c Gray78",
"099 c Gray81",
"100 c #C3C5D5",
"101 c #C3C8D7",
"102 c #C5C8D6",
"103 c #D4D3CE",
"104 c #D8D5D0",
"105 c #DAD8D4",
"106 c #DADAD8",
"107 c #E2E2DE",
"108 c #E4E4E3",
"109 c #E7E7E8",
"110 c #EBE9E3",
"111 c #EAE9EA",
"112 c #EEEDEB",
"113 c #E0E4F3",
"114 c #F0F5FF",
"115 c #F8F7F3",
"116 c #FFFFF4",
"117 c #FEFFFF",
"118 c Gray100",
"119 c black",
"120 c black",
"121 c black",
"122 c black",
"123 c black",
"124 c black",
"125 c black",
"126 c black",
"127 c black",
"128 c black",
"129 c black",
"130 c black",
"131 c black",
"132 c black",
"133 c black",
"134 c black",
"135 c black",
"136 c black",
"137 c black",
"138 c black",
"139 c black",
"140 c black",
"141 c black",
"142 c black",
"143 c black",
"144 c black",
"145 c black",
"146 c black",
"147 c black",
"148 c black",
"149 c black",
"150 c black",
"151 c black",
"152 c black",
"153 c black",
"154 c black",
"155 c black",
"156 c black",
"157 c black",
"158 c black",
"159 c black",
"160 c black",
"161 c black",
"162 c black",
"163 c black",
"164 c black",
"165 c black",
"166 c black",
"167 c black",
"168 c black",
"169 c black",
"170 c black",
"171 c black",
"172 c black",
"173 c black",
"174 c black",
"175 c black",
"176 c black",
"177 c black",
"178 c black",
"179 c black",
"180 c black",
"181 c black",
"182 c black",
"183 c black",
"184 c black",
"185 c black",
"186 c black",
"187 c black",
"188 c black",
"189 c black",
"190 c black",
"191 c black",
"192 c black",
"193 c black",
"194 c black",
"195 c black",
"196 c black",
"197 c black",
"198 c black",
"199 c black",
"200 c black",
"201 c black",
"202 c black",
"203 c black",
"204 c black",
"205 c black",
"206 c black",
"207 c black",
"208 c black",
"209 c black",
"210 c black",
"211 c black",
"212 c black",
"213 c black",
"214 c black",
"215 c black",
"216 c black",
"217 c black",
"218 c black",
"219 c black",
"220 c black",
"221 c black",
"222 c black",
"223 c black",
"224 c black",
"225 c black",
"226 c black",
"227 c black",
"228 c black",
"229 c black",
"230 c black",
"231 c black",
"232 c black",
"233 c black",
"234 c black",
"235 c black",
"236 c black",
"237 c black",
"238 c black",
"239 c black",
"240 c black",
"241 c black",
"242 c black",
"243 c black",
"244 c black",
"245 c black",
"246 c black",
"247 c black",
"248 c black",
"249 c black",
"250 c black",
"251 c black",
"252 c black",
"253 c black",
"254 c black",
"255 c black",
"000000000000000000000000000000000000000000000000000000000000000000000000",
"000000000000118118000000000000118118000000000000118118000000000000118118",
"000000000000118118000000000000118118000000000000118118000000000000118118",
"000000000000118118000000000000118118000000000000118118000000000000118118",
"000000000000000000000000000000000000000000000000000000000000000000000000",
"118118118118118118000000000000118118118118118118118118118118083023021033",
"113118118118118118000000000000118118118118118118118118106058118110054037",
"051118118118118118000000000000118118118118118118118093085047027056032015",
"000100118118118118000000000000118118118118118091040053089055032029070111",
"000062118118118118000000000000118118118118082109112028024020073117118118",
"000000095118118118000000000000118118118118108017026008071118118118118118",
"000000081118118118000000000000118118118118099045066069072088076074086079",
"050000094118118118000000000000118118118118098087107059104115075103105041",
"084080118118118118000000000000118118118118118063018044067064065090057043",
"102114118118118118000000000000118118118118118060022031041049048042039035",
"101118118118118118000000000000118118118118118052014019025034038030036022",
"096118118118118118000000000000118118118118118046005010013018015019016009",
"077116118118118118000000000000118118118118118092061007003007007006011002",
"078118118118118118000000000000118118118118118118118118097068012001004000",
"000000000000000000000000000000000000000000000000000000000000000000000000",
"000000000000118118000000000000118118000000000000118118000000000000118118",
"000000000000118118000000000000118118000000000000118118000000000000118118",
"000000000000118118000000000000118118000000000000118118000000000000118118",
"000000000000000000000000000000000000000000000000000000000000000000000000"
};
