/* XPM */
static const char *xpm_film15[] = {
"24 24 256 3",
"000 c black",
"001 c #010000",
"002 c #020100",
"003 c #030200",
"004 c #070601",
"005 c #070801",
"006 c #0B0A05",
"007 c #0D0C06",
"008 c #0E0D07",
"009 c #0F0D08",
"010 c #0F0E08",
"011 c #100F0A",
"012 c #11100B",
"013 c #12110B",
"014 c #13120C",
"015 c #14120D",
"016 c #14130D",
"017 c #15130F",
"018 c #151410",
"019 c #161710",
"020 c #181711",
"021 c #191812",
"022 c #1A1914",
"023 c #1B1A15",
"024 c #1C1B16",
"025 c #1D1C16",
"026 c #1E1D17",
"027 c #1F1E19",
"028 c #201E19",
"029 c #201F1A",
"030 c #20201A",
"031 c #23221C",
"032 c #23231C",
"033 c #23231D",
"034 c #24221C",
"035 c #24231D",
"036 c #24231F",
"037 c #25231F",
"038 c #25241E",
"039 c #25251F",
"040 c #282722",
"041 c #2A2925",
"042 c #2B2925",
"043 c #2E2D27",
"044 c #322F2B",
"045 c #32312B",
"046 c #33312C",
"047 c #32322E",
"048 c #37332F",
"049 c #383731",
"050 c #3A3934",
"051 c #3C3C35",
"052 c #483F3C",
"053 c #43423C",
"054 c #474640",
"055 c #4C4B46",
"056 c #4D4C48",
"057 c #4F4E49",
"058 c #53524E",
"059 c #53534F",
"060 c #555450",
"061 c #575650",
"062 c #585752",
"063 c #5D5353",
"064 c #5A5954",
"065 c #625E5D",
"066 c #63625D",
"067 c #64625E",
"068 c #676660",
"069 c #6B6A64",
"070 c #6E6E6C",
"071 c #71706C",
"072 c #72726F",
"073 c #757573",
"074 c #777776",
"075 c #7C7C78",
"076 c #807D7D",
"077 c #81817A",
"078 c #82817F",
"079 c #878784",
"080 c #8D8C89",
"081 c #949391",
"082 c #969593",
"083 c #9B9B98",
"084 c #A2A39D",
"085 c #A6A3A2",
"086 c #A7A8A5",
"087 c #A9A9A5",
"088 c #AAA9A7",
"089 c #ABAAA5",
"090 c #B4B3B1",
"091 c #B6B5B0",
"092 c Gray71",
"093 c #B5B4B6",
"094 c #BAB9BA",
"095 c #BBBAB9",
"096 c #BCBBBB",
"097 c #BCBDBD",
"098 c #BDBCBF",
"099 c #BFBFC1",
"100 c #C3C3C3",
"101 c Gray78",
"102 c Gray81",
"103 c #D4D3CE",
"104 c #D4D3D1",
"105 c #D8D5D0",
"106 c #DAD8D4",
"107 c #DADAD8",
"108 c #E2E2DE",
"109 c #E4E4E3",
"110 c #E7E7E8",
"111 c #EBE9E3",
"112 c #EAE9EA",
"113 c #EEEDEB",
"114 c #F8F7F3",
"115 c #FEFFFF",
"116 c Gray100",
"117 c black",
"118 c black",
"119 c black",
"120 c black",
"121 c black",
"122 c black",
"123 c black",
"124 c black",
"125 c black",
"126 c black",
"127 c black",
"128 c black",
"129 c black",
"130 c black",
"131 c black",
"132 c black",
"133 c black",
"134 c black",
"135 c black",
"136 c black",
"137 c black",
"138 c black",
"139 c black",
"140 c black",
"141 c black",
"142 c black",
"143 c black",
"144 c black",
"145 c black",
"146 c black",
"147 c black",
"148 c black",
"149 c black",
"150 c black",
"151 c black",
"152 c black",
"153 c black",
"154 c black",
"155 c black",
"156 c black",
"157 c black",
"158 c black",
"159 c black",
"160 c black",
"161 c black",
"162 c black",
"163 c black",
"164 c black",
"165 c black",
"166 c black",
"167 c black",
"168 c black",
"169 c black",
"170 c black",
"171 c black",
"172 c black",
"173 c black",
"174 c black",
"175 c black",
"176 c black",
"177 c black",
"178 c black",
"179 c black",
"180 c black",
"181 c black",
"182 c black",
"183 c black",
"184 c black",
"185 c black",
"186 c black",
"187 c black",
"188 c black",
"189 c black",
"190 c black",
"191 c black",
"192 c black",
"193 c black",
"194 c black",
"195 c black",
"196 c black",
"197 c black",
"198 c black",
"199 c black",
"200 c black",
"201 c black",
"202 c black",
"203 c black",
"204 c black",
"205 c black",
"206 c black",
"207 c black",
"208 c black",
"209 c black",
"210 c black",
"211 c black",
"212 c black",
"213 c black",
"214 c black",
"215 c black",
"216 c black",
"217 c black",
"218 c black",
"219 c black",
"220 c black",
"221 c black",
"222 c black",
"223 c black",
"224 c black",
"225 c black",
"226 c black",
"227 c black",
"228 c black",
"229 c black",
"230 c black",
"231 c black",
"232 c black",
"233 c black",
"234 c black",
"235 c black",
"236 c black",
"237 c black",
"238 c black",
"239 c black",
"240 c black",
"241 c black",
"242 c black",
"243 c black",
"244 c black",
"245 c black",
"246 c black",
"247 c black",
"248 c black",
"249 c black",
"250 c black",
"251 c black",
"252 c black",
"253 c black",
"254 c black",
"255 c black",
"000000000000000000000000000000000000000000000000000000000000000000000000",
"000000000000116116000000000000116116000000000000116116000000000000116116",
"000000000000116116000000000000116116000000000000116116000000000000116116",
"000000000000116116000000000000116116000000000000116116000000000000116116",
"000000000000000000000000000000000000000000000000000000000000000000000000",
"116116116116116116116116083024022034090116116116116116000000000000116116",
"116116116116116116107060116111055038079116116116116116000000000000116116",
"116116116116116096084049028057033016059116116116116116000000000000116116",
"116116116092041054089056033030072112116116116116116116000000000000116116",
"116116082110113029025021075115116116116116116116116116000000000000116116",
"116116109018027008073116116116116116116116116116116116000000000000116116",
"116116102047068071074088078076085080104116116116116116000000000000116116",
"116116101087108061105114077103106043053081116116116116000000000000116116",
"116116116065019046069066067091058045062086116116116116000000000000116116",
"116116116063023032043051050044040036042093116116116116000000000000116116",
"116116116052015020026035039031037023012097116116116116000000000000116116",
"116116116048005010014019016020017009003099116116116116000000000000116116",
"116116116095064007003007007006011002000098116116116116000000000000116116",
"116116116116116116100070013001004000000094116116116116000000000000116116",
"000000000000000000000000000000000000000000000000000000000000000000000000",
"000000000000116116000000000000116116000000000000116116000000000000116116",
"000000000000116116000000000000116116000000000000116116000000000000116116",
"000000000000116116000000000000116116000000000000116116000000000000116116",
"000000000000000000000000000000000000000000000000000000000000000000000000"
};
