/* XPM */
static const char *xpm_film17[] = {
"24 24 256 3",
"000 c black",
"001 c #010000",
"002 c #020100",
"003 c #030200",
"004 c #070601",
"005 c #000008",
"006 c #070801",
"007 c #0B0A05",
"008 c #0D0C06",
"009 c #0E0D07",
"010 c #0F0D08",
"011 c #0F0E08",
"012 c #100F0A",
"013 c #11100B",
"014 c #12110B",
"015 c #13120C",
"016 c #14120D",
"017 c #14130D",
"018 c #15130F",
"019 c #161710",
"020 c #181711",
"021 c #191812",
"022 c #1A1914",
"023 c #1B1A15",
"024 c #1C1B16",
"025 c #1D1C16",
"026 c #1E1D17",
"027 c #1F1E19",
"028 c #201E19",
"029 c #201F1A",
"030 c #20201A",
"031 c #23221C",
"032 c #23231C",
"033 c #23231D",
"034 c #24221C",
"035 c #24231D",
"036 c #24231F",
"037 c #25231F",
"038 c #25241E",
"039 c #25251F",
"040 c #282722",
"041 c #2A2925",
"042 c #2B2925",
"043 c #2E2D27",
"044 c #242837",
"045 c #322F2B",
"046 c #32312B",
"047 c #33312C",
"048 c #383731",
"049 c #3A3934",
"050 c #3C3C35",
"051 c #43423C",
"052 c #474640",
"053 c #4C4B46",
"054 c #4D4C48",
"055 c #4F4E49",
"056 c #4A4959",
"057 c #4A4C5B",
"058 c #53524E",
"059 c #53534F",
"060 c #555450",
"061 c #575650",
"062 c #585752",
"063 c #5A5954",
"064 c #4C5161",
"065 c #63625D",
"066 c #64625E",
"067 c #676660",
"068 c #6B6A64",
"069 c #6E6E6C",
"070 c #71706C",
"071 c #72726F",
"072 c #757573",
"073 c #777776",
"074 c #7C7C78",
"075 c #767989",
"076 c #807D7D",
"077 c #81817A",
"078 c #82817F",
"079 c #FFC600",
"080 c #FFD422",
"081 c #878784",
"082 c #8D8C89",
"083 c #87809C",
"084 c #949391",
"085 c #9B9B98",
"086 c #9495A5",
"087 c #A2A39D",
"088 c #A6A3A2",
"089 c #A7A8A5",
"090 c #AAA9A7",
"091 c #ABAAA5",
"092 c #A6A5B4",
"093 c #B4B3B1",
"094 c #B6B5B0",
"095 c #B5B4B6",
"096 c #BAB9BA",
"097 c #BCBBBB",
"098 c #BCBDBD",
"099 c #BDBCBF",
"100 c #BFBFC1",
"101 c #C3C3C3",
"102 c #D4D3CE",
"103 c #D4D3D1",
"104 c #D8D5D0",
"105 c #DAD8D4",
"106 c #DADAD8",
"107 c #E2E2DE",
"108 c #EBE9E3",
"109 c #EAE9EA",
"110 c #EEEDEB",
"111 c #E5E9F9",
"112 c #EDEAFF",
"113 c #EDEFFE",
"114 c #FFF4E3",
"115 c #F0F1FF",
"116 c #F4F7FF",
"117 c #F6F9FF",
"118 c #F8F7F3",
"119 c #FEFFFF",
"120 c Gray100",
"121 c black",
"122 c black",
"123 c black",
"124 c black",
"125 c black",
"126 c black",
"127 c black",
"128 c black",
"129 c black",
"130 c black",
"131 c black",
"132 c black",
"133 c black",
"134 c black",
"135 c black",
"136 c black",
"137 c black",
"138 c black",
"139 c black",
"140 c black",
"141 c black",
"142 c black",
"143 c black",
"144 c black",
"145 c black",
"146 c black",
"147 c black",
"148 c black",
"149 c black",
"150 c black",
"151 c black",
"152 c black",
"153 c black",
"154 c black",
"155 c black",
"156 c black",
"157 c black",
"158 c black",
"159 c black",
"160 c black",
"161 c black",
"162 c black",
"163 c black",
"164 c black",
"165 c black",
"166 c black",
"167 c black",
"168 c black",
"169 c black",
"170 c black",
"171 c black",
"172 c black",
"173 c black",
"174 c black",
"175 c black",
"176 c black",
"177 c black",
"178 c black",
"179 c black",
"180 c black",
"181 c black",
"182 c black",
"183 c black",
"184 c black",
"185 c black",
"186 c black",
"187 c black",
"188 c black",
"189 c black",
"190 c black",
"191 c black",
"192 c black",
"193 c black",
"194 c black",
"195 c black",
"196 c black",
"197 c black",
"198 c black",
"199 c black",
"200 c black",
"201 c black",
"202 c black",
"203 c black",
"204 c black",
"205 c black",
"206 c black",
"207 c black",
"208 c black",
"209 c black",
"210 c black",
"211 c black",
"212 c black",
"213 c black",
"214 c black",
"215 c black",
"216 c black",
"217 c black",
"218 c black",
"219 c black",
"220 c black",
"221 c black",
"222 c black",
"223 c black",
"224 c black",
"225 c black",
"226 c black",
"227 c black",
"228 c black",
"229 c black",
"230 c black",
"231 c black",
"232 c black",
"233 c black",
"234 c black",
"235 c black",
"236 c black",
"237 c black",
"238 c black",
"239 c black",
"240 c black",
"241 c black",
"242 c black",
"243 c black",
"244 c black",
"245 c black",
"246 c black",
"247 c black",
"248 c black",
"249 c black",
"250 c black",
"251 c black",
"252 c black",
"253 c black",
"254 c black",
"255 c black",
"000000000000000000000000000000000000000000000000000000000000000000000000",
"120120000000000000120120000000000000120120000000000000120120000000000000",
"120120000000000000120120000000000000120120000000000000120120000000000000",
"120120000000000000120120000000000000120120000000000000120120000000000000",
"000000000000000000000000000000000000000000000000000000000000000000000000",
"120120120120085024022034093120120120120120000000000000120120120120120120",
"120120106060120108053038081120120120120120000000000000120120120120120092",
"120097087048028055033017059120120120120120000000000000120120120120115044",
"041052091054033030071109120120120120120120000000000000120120120120086000",
"110029025021074119120120120120120120120120000000000000120120120120057000",
"027009072120120120120120120120120120120120000000000000120120120111005000",
"067070073090078076088082103120120120120120000000000000120120120064000075",
"107061104118077102105043051084120120120120000000000000120120117083056113",
"019047068065066094058046062089120120120120000000000000120120120120112120",
"023032043050049045040036042095120120120120000000000000120120120120120116",
"016020026035039031037023013098120120120120000000000000120120120120120116",
"006011015019017020018010003100120120120120000000000000120120120120120114",
"063008003008008007012002000099120120120120000000000000120120120120120079",
"120120101069014001004000000096120120120120000000000000120120120120120080",
"000000000000000000000000000000000000000000000000000000000000000000000000",
"120120000000000000120120000000000000120120000000000000120120000000000000",
"120120000000000000120120000000000000120120000000000000120120000000000000",
"120120000000000000120120000000000000120120000000000000120120000000000000",
"000000000000000000000000000000000000000000000000000000000000000000000000"
};
